<svg width="64" height="73" viewBox="0 0 64 73" fill="none" xmlns="http://www.w3.org/2000/svg">
    <path d="M55.2324 42.5562C55.265 42.5627 55.3172 42.5757 55.4086 42.5888C55.3694 42.5823 55.2977 42.5692 55.2324 42.5562Z" fill="#F0805E"/>
    <path d="M55.1535 42.5495C55.1274 42.543 55.1013 42.53 55.0752 42.5234C55.0882 42.53 55.1078 42.5365 55.1535 42.5495Z" fill="#F0805E"/>
    <path d="M12.1411 54.0007L12.3172 52.3369H12.2455L11.7365 53.6745L9.9552 56.7934H9.42668L7.55403 53.668L7.02551 52.3369H6.96678L7.20821 53.9877V58.3333H5.65527V49.9749H7.14949L9.38101 53.7985L9.7725 54.7511H9.8247L10.1836 53.7724L12.2977 49.9749H13.7788V58.3333H12.1411V54.0007Z" fill="#F0805E"/>
    <path d="M15.9248 49.9751H20.8837V51.4302H17.5626V53.3811H20.5836V54.8362H17.5626V56.8785H20.9425V58.3335H15.9248V49.9751Z" fill="#F0805E"/>
    <path d="M30.2152 59.8274H29.0538L28.8711 58.3332H23.4945L23.3118 59.8274H22.1504V56.8782H23.0313C23.09 56.7933 23.1813 56.5976 23.3053 56.2909C23.4358 55.9908 23.5598 55.5601 23.6903 55.0055C23.8142 54.4509 23.9252 53.7592 24.01 52.9241C24.0948 52.0889 24.1405 51.1036 24.1274 49.9683H29.1321V56.8716H30.1956V59.8274H30.2152ZM27.5139 56.8782V51.4298H25.6608C25.6151 52.8457 25.4977 54.0072 25.3215 54.9142C25.1453 55.8146 24.9626 56.4736 24.7799 56.8782H27.5139Z" fill="#F0805E"/>
    <path d="M36.544 54.8359H33.4903V58.3333H31.8525V49.9749H33.4903V53.3809H36.544V49.9749H38.1817V58.3333H36.544V54.8359Z" fill="#F0805E"/>
    <path d="M40.3418 49.9751H41.9796V52.9766C42.0709 52.9635 42.2079 52.9439 42.3971 52.9178C42.5864 52.8917 42.7756 52.8852 42.9583 52.8852C43.3563 52.8852 43.7348 52.9244 44.1002 53.0027C44.4655 53.081 44.7788 53.2245 45.0528 53.4268C45.3203 53.6291 45.5356 53.9031 45.6988 54.2489C45.8554 54.5947 45.9402 55.0319 45.9402 55.5539C45.9402 56.5261 45.6596 57.2504 45.0919 57.7332C44.5243 58.2161 43.6891 58.4575 42.5733 58.4575C42.4624 58.4575 42.3188 58.4575 42.1427 58.451C41.9665 58.4445 41.7773 58.4379 41.575 58.4184C41.3727 58.4053 41.1639 58.3857 40.9486 58.3596C40.7333 58.3335 40.5375 58.3009 40.3548 58.2552V49.9751H40.3418ZM42.6842 56.9959C43.141 56.9959 43.5064 56.8915 43.787 56.6762C44.0675 56.4674 44.2111 56.1151 44.2111 55.6192C44.2111 55.3582 44.1719 55.1428 44.0936 54.9732C44.0153 54.8035 43.9044 54.673 43.7739 54.5817C43.6369 54.4838 43.4803 54.4186 43.2976 54.3859C43.1149 54.3533 42.9126 54.3338 42.6973 54.3338C42.5864 54.3338 42.4559 54.3468 42.3058 54.3664C42.1557 54.3859 42.0448 54.4055 41.9861 54.4316V56.9307C42.0774 56.9568 42.1818 56.9698 42.3058 56.9829C42.4232 56.9894 42.5537 56.9959 42.6842 56.9959ZM46.795 49.9751H48.4327V58.3401H46.795V49.9751Z" fill="#F0805E"/>
    <path d="M55.4669 53.7007L55.5648 52.6111H55.506L54.9449 53.7334L51.826 58.3334H50.5928V49.9685H52.2305V54.5164L52.1131 55.6386H52.1849L52.7721 54.4772L55.891 49.962H57.1112V58.3269H55.4734V53.7007H55.4669ZM53.1375 47.8936C53.1701 48.148 53.2615 48.3307 53.4181 48.4417C53.5747 48.5526 53.7769 48.6113 54.0184 48.6113C54.5534 48.6113 54.847 48.3764 54.9058 47.9066L56.2303 48.1089C56.139 48.6113 55.9106 48.9767 55.5452 49.2051C55.1733 49.4334 54.6643 49.5509 54.0118 49.5509C53.6856 49.5509 53.3855 49.5248 53.1179 49.4791C52.8439 49.4334 52.609 49.3551 52.4067 49.2442C52.2044 49.1333 52.0348 48.9897 51.9043 48.8071C51.7738 48.6244 51.689 48.396 51.6563 48.1285L53.1375 47.8936Z" fill="#F0805E"/>
    <path d="M12.8784 72.1727H11.7235L11.5408 70.6785H5.65527V62.3201H7.29303V69.2234H10.1705V62.3201H11.8083V69.2234H12.8784V72.1727Z" fill="#F0805E"/>
    <path d="M21.3407 64.2642C21.3407 64.473 21.3146 64.6753 21.2624 64.8841C21.2102 65.0929 21.1253 65.2821 21.0079 65.4517C20.8904 65.6214 20.7339 65.7715 20.5446 65.9085C20.3554 66.039 20.127 66.1369 19.853 66.2021V66.2739C20.0879 66.313 20.3163 66.3848 20.5316 66.4762C20.7469 66.574 20.9296 66.7045 21.0862 66.8676C21.2428 67.0373 21.3733 67.2396 21.4581 67.4745C21.5495 67.7159 21.5951 67.9965 21.5951 68.3227C21.5951 68.7534 21.5038 69.1253 21.3211 69.4385C21.1384 69.7517 20.8905 70.0127 20.5838 70.2084C20.2771 70.4107 19.9313 70.5542 19.5398 70.6521C19.1483 70.75 18.7503 70.7957 18.3327 70.7957H17.8107C17.6019 70.7957 17.3735 70.7891 17.1321 70.7761C16.8907 70.763 16.6427 70.7435 16.3882 70.7239C16.1403 70.6978 15.9054 70.6652 15.7031 70.613V62.372C15.8532 62.3459 16.0294 62.3263 16.2251 62.3002C16.4209 62.2741 16.6297 62.2545 16.8515 62.2415C17.0734 62.2284 17.3017 62.2154 17.5366 62.2089C17.7715 62.2023 18.0064 62.1958 18.2348 62.1958C18.6263 62.1958 19.0047 62.2284 19.3767 62.2871C19.7486 62.3459 20.0748 62.4503 20.3685 62.6004C20.6621 62.7504 20.8904 62.9657 21.0666 63.2333C21.2493 63.5073 21.3407 63.8531 21.3407 64.2642ZM17.8368 65.8302C17.9477 65.8302 18.0782 65.8237 18.2283 65.8171C18.3784 65.8106 18.4958 65.7976 18.5937 65.778C18.8938 65.6866 19.1548 65.5431 19.3767 65.3539C19.5985 65.1646 19.7029 64.9167 19.7029 64.61C19.7029 64.4078 19.6638 64.2381 19.5855 64.1011C19.5072 63.9641 19.4028 63.8597 19.2723 63.7814C19.1418 63.7031 18.9917 63.6443 18.8221 63.6182C18.6524 63.5856 18.4828 63.5726 18.3001 63.5726C18.0913 63.5726 17.902 63.5791 17.7259 63.5856C17.5497 63.5921 17.4127 63.6052 17.3213 63.6182V65.8302H17.8368ZM18.3588 69.4254C18.5545 69.4254 18.7437 69.3993 18.9264 69.3536C19.1091 69.308 19.2723 69.2362 19.4158 69.1383C19.5594 69.0404 19.6703 68.9165 19.7551 68.7664C19.8399 68.6163 19.8856 68.4402 19.8856 68.2314C19.8856 67.9704 19.8334 67.7681 19.7355 67.618C19.6311 67.4679 19.5006 67.3505 19.3375 67.2657C19.1744 67.1808 18.9917 67.1286 18.7894 67.1091C18.5872 67.083 18.3849 67.0765 18.1826 67.0765H17.3278V69.3602C17.367 69.3732 17.4322 69.3863 17.5171 69.3928C17.6019 69.3993 17.6932 69.4059 17.7911 69.4124C17.889 69.4189 17.9934 69.4189 18.0978 69.4254C18.1891 69.4254 18.2805 69.4254 18.3588 69.4254Z" fill="#F0805E"/>
    <path d="M24.7861 62.3201H29.7451V63.7751H26.4239V65.7261H29.4449V67.1811H26.4239V69.2234H29.8038V70.6785H24.7861V62.3201Z" fill="#F0805E"/>
    <path d="M38.7691 63.7749H36.3287V70.6783H34.6975V63.7749H32.2441V62.3198H38.7691V63.7749Z" fill="#F0805E"/>
    <path d="M40.7979 66.496C40.7979 65.0997 41.1045 64.0296 41.7179 63.2792C42.3312 62.5288 43.2056 62.1504 44.3474 62.1504C44.9477 62.1504 45.4632 62.2548 45.9134 62.4636C46.3571 62.6724 46.729 62.966 47.0226 63.3445C47.3163 63.7294 47.5381 64.1862 47.6817 64.7212C47.8252 65.2563 47.897 65.85 47.897 66.5025C47.897 67.8988 47.5903 68.9689 46.9704 69.7193C46.3506 70.4697 45.4762 70.8481 44.3474 70.8481C43.7406 70.8481 43.2186 70.7437 42.7684 70.5349C42.3247 70.3261 41.9528 70.0325 41.6657 69.6541C41.3786 69.2756 41.1567 68.8123 41.0132 68.2838C40.8696 67.7422 40.7979 67.155 40.7979 66.496ZM42.5204 66.496C42.5204 66.9201 42.5531 67.3051 42.6248 67.664C42.6966 68.0163 42.8075 68.323 42.9511 68.5774C43.1012 68.8319 43.2904 69.0342 43.5187 69.1777C43.7471 69.3213 44.0212 69.3931 44.3409 69.3931C44.9216 69.3931 45.3718 69.1647 45.6915 68.7145C46.0113 68.2577 46.1679 67.5204 46.1679 66.5025C46.1679 66.098 46.1352 65.7195 46.0635 65.3672C45.9917 65.0148 45.8938 64.7082 45.7438 64.4472C45.6002 64.1862 45.411 63.9774 45.1826 63.8338C44.9542 63.6837 44.6671 63.612 44.3344 63.612C43.7536 63.612 43.3034 63.8469 42.9837 64.3101C42.677 64.7734 42.5204 65.5042 42.5204 66.496Z" fill="#F0805E"/>
    <path d="M53.0459 67.1094H52.6153V70.6785H50.9775V62.3201H52.6153V66.0197L52.9937 65.8566L55.3036 62.3201H57.1632L54.7294 65.8305L54.0834 66.2872L54.7555 66.7505L57.5351 70.6785H55.5189L53.0459 67.1094Z" fill="#F0805E"/>
    <path d="M53.1177 27.9075C53.0264 27.764 52.7458 27.5486 52.674 27.4051C52.4978 27.0462 52.3478 26.6221 52.1259 26.3937C51.5648 25.8326 50.9906 25.291 50.4164 24.7429C50.1358 24.4689 49.8618 24.1818 49.5616 23.9273C49.1506 23.5815 48.7199 23.2683 48.2958 22.9355C48.1849 22.8442 48.0935 22.7333 47.9891 22.6354C47.5389 22.2439 47.0756 21.8785 46.6384 21.4674C46.0773 20.9389 45.5357 20.3778 44.9876 19.8297C44.6353 19.4773 44.2829 19.125 43.9176 18.7857C43.7218 18.5965 43.4869 18.4464 43.2846 18.2637C43.0432 18.0418 42.8344 17.7874 42.5865 17.5786C42.1362 17.2001 41.6469 16.8739 41.1967 16.4889C40.368 15.7777 39.5589 15.0469 38.7498 14.3161C38.2931 13.905 37.8624 13.4548 37.3991 13.0503C37.0207 12.7175 37.1055 12.8088 36.7075 12.5022C35.8919 11.7388 35.1611 12.6522 35.3568 13.0437C35.4808 13.3374 35.4743 13.3047 35.5526 13.4613C36.4596 15.2557 37.3926 17.7156 37.36 24.0643C37.3208 30.9547 36.4465 33.0753 35.8136 33.7212C35.1807 34.3672 33.7452 34.7913 32.8643 34.7522C31.9835 34.713 31.5006 34.439 31.1352 34.5629C30.7763 34.6869 29.4583 35.6526 28.9689 36.2659C28.4796 36.8793 26.5221 38.628 25.7065 39.411C24.8909 40.1939 20.7671 41.4989 18.7639 41.0879C18.0658 40.9443 16.5781 40.8138 16.5259 40.8008C15.3384 40.605 14.327 40.4745 13.9355 40.4615C13.6941 40.4484 12.7153 40.2983 12.6501 40.2983C12.4739 40.3571 10.7709 40.5659 10.5425 40.6703C9.89004 40.9574 8.87215 41.1857 7.72376 41.8709C7.01254 42.295 6.36005 42.8692 6.36005 42.8692L6.01423 43.2607C5.90983 43.4238 5.68146 43.6652 5.61621 43.8088C5.67494 43.8153 7.71071 43.7761 7.76291 43.7827C7.97823 43.8022 8.19356 43.9001 8.40236 43.8871C8.97003 43.8479 9.53117 43.7631 10.0988 43.7174C10.4512 43.6913 11.5539 43.7109 11.6387 43.7109C11.9519 43.7044 12.637 43.6587 12.6631 43.6717C12.9307 43.8349 13.2047 43.6978 13.4788 43.6783C13.5636 43.6717 13.8702 43.6195 14.2878 43.613C14.3074 43.613 16.1018 43.5869 16.6238 43.5608C17.4002 43.5217 18.1767 43.4695 18.9532 43.4303C19.0641 43.4238 19.4882 43.4434 19.5926 43.4434C20.2582 43.4238 20.9237 43.3846 21.5892 43.3651C22.3592 43.3455 24.7343 43.2998 25.1519 43.3129C25.7195 43.3259 28.1794 43.4825 28.5579 43.3716C28.6296 43.352 29.8433 43.3455 30.3 43.3129C31.1287 43.2476 31.9574 43.3194 32.786 43.2802C33.4646 43.2476 36.8119 43.3129 37.8102 43.3259C38.3975 43.3324 38.9912 43.3781 39.5785 43.339C40.2832 43.2933 40.9813 43.1824 41.6795 43.1106C42.2015 43.0519 42.73 43.0062 43.252 42.9605C43.9241 42.9018 44.5244 42.9997 45.1964 42.9801C45.9272 42.9605 46.6645 43.0127 47.3953 43.0127C47.839 43.0127 48.3937 42.9083 48.8439 42.8887C49.0135 42.8431 48.9548 42.7387 49.2615 42.7126C49.4246 42.6995 49.8552 42.3929 49.8944 42.2297C49.9531 41.9687 50.0249 41.5577 50.0445 41.512C49.9857 41.4989 49.5616 41.4859 49.4637 41.4663C48.9417 41.388 48.7982 41.1401 48.4393 40.99C48.0087 40.8073 47.7607 40.3114 47.6107 39.8808C47.428 39.3457 47.18 38.119 48.2566 37.5905C48.4524 37.4926 48.9483 37.2708 48.9483 37.1729C48.9483 37.1403 48.9483 37.1403 48.9352 37.1077C48.8308 36.8989 48.4915 36.7879 48.2632 36.8597C47.9695 36.9445 47.7085 36.7553 47.5063 36.5922C47.2583 36.3964 47.1604 36.2072 46.9255 35.9723C46.5993 35.6461 46.4688 35.1241 46.5993 34.7065C46.658 34.5173 46.6776 34.1192 46.7298 33.93C46.8081 33.6234 47.1735 33.0296 47.2779 32.9382C47.7803 32.475 48.2958 32.1226 49.1179 31.9399C49.1636 31.9334 49.4115 31.9725 49.6334 32.0313C49.392 31.7311 49.2093 31.2613 49.1962 31.0852C49.1636 30.7132 49.2093 30.3348 49.2223 29.9563C49.2354 29.5388 49.4442 29.2712 49.8487 29.1342C49.9335 29.1081 50.0053 29.0298 50.064 28.958C50.3642 28.6253 50.7035 28.3773 51.1667 28.3969C51.3821 28.4034 51.767 28.3447 51.9824 28.3838C52.2695 28.436 53.1373 28.6318 53.4701 28.8928C53.9007 28.4752 53.2808 28.162 53.1177 27.9075Z" fill="#F0805E"/>
    <path d="M6.3205 17.6764C6.2161 17.6764 5.93553 17.6699 5.56361 17.7156C5.34828 17.7417 4.6958 18.0353 4.5392 18.1528C4.23253 18.3746 3.9389 18.8379 3.8606 18.9553C3.55393 19.4251 3.48868 20.2277 3.48868 20.5735C3.48868 20.8932 3.42995 21.6893 3.4691 21.9503C3.61917 22.8768 4.38911 24.7625 4.51961 25.0039C4.63706 25.2258 5.49836 26.2241 6.11823 26.7069C6.34008 26.8766 6.85554 27.0919 6.97952 27.1767C7.17526 27.3072 7.62548 27.3268 7.9974 27.3529C8.6238 27.3921 9.14579 27.2616 9.26324 27.2028C9.38069 27.1441 9.94836 26.7918 10.0789 26.6025C10.2094 26.4133 10.379 26.2698 10.4899 26.1001C10.6009 25.9305 11.025 25.2258 11.038 25.154C11.0967 24.8734 11.1033 24.4754 11.1816 24.2144C11.2468 23.9991 11.1685 23.7055 11.2533 23.575C11.2925 23.5163 11.1294 22.5506 11.1294 22.4331C11.1294 22.3222 10.9924 21.9046 10.764 21.6371C10.5748 21.4087 10.2094 21.0172 10.0658 20.9128C9.69388 20.6453 9.2763 20.58 8.74778 20.6649C8.40196 20.7171 8.03656 20.8802 7.80166 21.0433C7.56677 21.2064 7.41016 21.4022 7.31881 21.5718C6.77725 22.6158 7.11001 23.6337 7.12959 23.7903C7.14916 23.9404 7.32534 24.6842 7.64506 25.0105C7.84081 25.2127 8.25841 25.5781 8.40196 25.7674C8.52593 25.9305 8.51941 26.0088 8.54551 26.1066C8.56508 26.2045 8.50635 26.4329 8.36933 26.4851C8.23231 26.5373 7.95173 26.5699 7.78208 26.5242C7.50151 26.4459 7.34492 26.3089 7.24052 26.2437C7.14917 26.1849 6.56192 25.6499 6.41837 25.3693C6.27482 25.0888 6.12475 24.7886 6.0856 24.619C6.04645 24.4493 5.84418 23.0595 5.99425 22.27C6.09865 21.7349 6.66633 20.6649 7.14917 20.3386C7.33187 20.2146 7.57981 19.9145 7.84081 19.8623C8.13443 19.797 8.43458 19.4055 8.7282 19.4186C8.97615 19.4316 9.32849 19.4904 9.51119 19.4512C9.69389 19.4121 10.4573 19.6143 10.7901 19.7709C11.1816 19.9536 11.4034 20.5083 11.6057 20.5735C11.8536 20.6583 12.0755 21.0237 12.1864 21.1869C12.2973 21.35 12.3952 21.5522 12.4083 21.7545C12.4213 21.9568 12.7606 22.4462 12.6758 22.9616C12.6562 23.0921 12.5844 23.973 12.5518 24.1753C12.4931 24.5146 12.3039 25.2845 12.2256 25.4998C12.1473 25.7152 11.6905 26.6025 11.4882 26.8244C10.5878 27.8227 9.91573 27.914 9.66778 28.0641C9.03487 28.4426 7.96478 28.4491 7.66464 28.4099C7.26009 28.3512 6.31398 28.1816 5.90291 27.888C5.49184 27.5943 4.96332 27.2746 4.52614 26.8766C4.16075 26.5503 3.6518 26.0022 3.46258 25.689C3.24073 25.3237 2.89491 24.7625 2.77094 24.3645C2.52951 23.9534 2.17064 22.6158 2.0793 22.1003C2.03362 21.8263 1.96837 21.2978 2.00099 20.828C2.02709 20.5148 2.03362 19.7253 2.29462 19.1315C2.45774 18.7596 2.90144 18.0418 3.48868 17.6634C3.92585 17.3828 4.48699 17.1088 4.80019 17.05C5.11339 16.9913 5.6941 17.0174 5.91595 17.0827C6.1378 17.1544 6.27482 17.2001 6.3988 17.3045C6.54887 17.435 6.70547 17.6699 6.3205 17.6764Z" fill="#F0805E"/>
    <path d="M8.32352 22.159C8.34962 22.0937 8.48012 22.0024 8.53884 21.9698C8.59757 21.9437 8.81289 21.8915 8.89772 21.911C8.98254 21.9306 9.11304 21.9763 9.13262 22.1459C9.15871 22.3156 9.18481 22.4395 9.19134 22.57C9.19786 22.7005 9.20438 23.2747 9.17828 23.4379C9.15218 23.601 9.04779 24.0577 9.04127 24.1165C9.03474 24.1687 9.04127 24.2404 9.04127 24.2404C9.04127 24.2404 8.95644 24.4297 8.86509 24.4884C8.76722 24.5471 8.53232 24.5797 8.40835 24.4623C8.28437 24.3448 8.24522 24.2535 8.22565 24.2274C8.20608 24.2013 8.21912 24.136 8.17997 24.0643C8.14735 23.986 8.06905 23.8359 8.07558 23.7445C8.08863 23.6532 8.14083 23.3465 8.15388 23.2225C8.16693 23.0986 8.23218 22.6614 8.2387 22.57C8.25828 22.4852 8.2909 22.2438 8.32352 22.159Z" fill="#F0805E"/>
    <path d="M28.8061 24.469C29.0541 24.482 29.2955 24.482 29.5434 24.5081C29.8632 24.5408 30.1242 24.7235 30.3003 24.9779C30.6788 25.526 31.0376 26.1133 30.8876 26.818C30.7962 27.2551 30.6788 27.7119 30.333 28.0251C30.1764 28.1621 29.9545 28.2273 29.7522 28.3056C29.5891 28.3709 29.4129 28.4492 29.2433 28.4492C28.8909 28.4492 28.5256 28.4361 28.1797 28.3644C27.9579 28.3122 27.7621 28.136 27.5468 28.0316C26.9791 27.7575 26.7247 27.2682 26.816 26.6353C26.8682 26.2568 26.8095 25.8523 27.1162 25.5391C27.214 25.4347 27.2989 25.3238 27.4033 25.2259C27.4685 25.1606 27.5729 25.1215 27.6186 25.0432C27.8731 24.5473 28.2972 24.4233 28.8061 24.469ZM29.6087 27.3139C29.6544 27.34 29.6935 27.3595 29.7327 27.3856C29.9219 27.1116 30.1176 26.8375 30.3264 26.5439C30.1633 26.5048 30.0785 26.4852 29.9937 26.4656C29.8632 26.7592 29.7392 27.0398 29.6087 27.3139Z" fill="#F0805E"/>
    <path d="M20.252 9.69019L20.265 9.69671L20.3172 9.73586L20.252 9.69019Z" fill="#F0805E"/>
    <path d="M35.207 10.3819C35.4746 9.72944 35.5006 9.0639 35.5855 8.27439L35.468 8.52233C35.455 7.23692 35.0178 6.49308 34.3914 5.86669C33.3148 5.22725 32.3295 5.33164 31.6966 5.48824C31.0441 5.65789 30.6918 5.96456 30.5156 6.17336C30.1633 6.61053 30.2546 6.72798 30.5808 6.58443C31.5465 6.17988 32.3883 6.38216 32.3883 6.38216C33.5954 6.50613 34.0978 7.44572 34.1435 7.64799C34.1957 7.73934 34.2544 8.24176 34.2544 8.37878C34.274 9.5076 33.9608 10.9822 32.3556 12.0588C30.7962 12.9658 29.713 13.0115 28.6103 13.0376C28.0622 13.0572 27.5468 12.9462 26.8747 12.9071C26.5093 12.8875 26.0199 12.7309 25.4849 12.5678C25.6741 12.3981 26.294 11.6739 26.294 11.6739C26.6333 11.0866 26.9595 10.6756 27.2466 9.85342C27.2401 9.75554 27.2727 9.70987 27.2597 9.61852C27.3967 9.0117 27.4489 8.8812 27.5402 8.71156C27.6251 8.54843 27.7947 7.61537 27.7947 7.61537C27.7947 7.24997 27.8012 7.28912 27.8143 7.0477C27.8665 6.94982 27.873 6.98897 27.8339 6.44741C27.8469 6.29733 27.7817 6.00371 27.7425 5.78839C27.7425 5.39689 27.6185 4.94015 27.4946 4.49645C27.3575 4.02666 26.9465 3.0675 26.6398 2.676C26.3331 2.2845 25.8176 1.64506 25.5958 1.46236C24.0951 0.548874 23.4948 0.483627 23.5143 0.470577C22.5682 0.124756 21.72 0.131281 20.9109 0.23568C20.1344 0.340078 19.5015 0.666322 18.6663 1.22747C18.6141 1.30577 18.5358 1.38407 18.3857 1.54066C18.2292 1.69074 17.3613 2.56508 17.0351 3.92878C16.9307 4.3529 16.8459 4.7705 16.8524 5.07065C16.8785 5.24029 16.8915 5.25987 16.9437 5.42299C17.0155 6.19946 17.009 6.43436 17.0547 6.8389C17.0547 6.8389 17.1917 7.64799 17.4266 8.22871C17.4853 8.42446 17.7659 9.05085 17.8181 9.1683C17.9355 9.3771 18.2683 9.89256 18.4445 10.0296C18.6141 10.1731 18.699 10.3036 19.0121 10.6625C18.9926 10.656 18.9795 10.656 18.9599 10.656C19.0252 10.7539 19.0709 10.917 19.2927 11.1323C19.2405 11.0801 19.247 11.1323 19.371 11.2628C19.4297 11.315 19.9974 11.7391 19.7886 11.5629C19.8147 11.5695 19.7951 11.5434 19.7495 11.4716C20.1475 11.9544 20.9566 12.3525 21.1719 12.5808C21.472 12.7701 21.8635 12.8614 22.1506 13.005C20.7739 13.6835 19.2144 14.0489 17.6745 13.9119C16.5783 13.8336 15.5083 13.4878 14.5426 12.9919C14.0793 12.7505 13.6487 12.4699 13.2376 12.1632C13.4855 11.9153 13.727 11.6608 13.9553 11.3998C14.647 10.5777 15.3517 8.9856 15.3517 8.9856C15.3582 8.59411 15.43 8.35921 15.443 8.11126C15.4691 7.86332 15.5213 7.59579 15.4691 7.18472C15.4887 7.13905 15.4952 7.08033 15.5017 7.08685C15.43 6.68231 15.4626 6.00371 15.3321 5.44909C15.2603 5.17505 14.8884 4.03319 14.8884 4.03319C14.6274 3.55687 14.3207 3.30892 13.9227 2.9109C13.9097 2.91742 13.9488 2.96309 14.0532 3.13274C13.9618 3.01529 13.7531 2.83913 13.6226 2.66295C13.479 2.4933 12.9505 1.97783 12.2523 1.76251C11.9783 1.63201 11.3193 1.61896 10.9212 1.72336C10.1774 1.91258 9.51838 2.42805 9.11383 2.8065C8.85936 3.29587 9.27042 2.31061 8.83325 3.00877C8.70928 2.9631 9.00943 2.64337 8.79411 2.76082C8.55268 3.11969 8.38304 3.41984 8.24601 3.75914C8.10899 4.09843 7.97849 4.37901 7.99154 4.8749L7.91977 5.0054C7.91977 5.69052 8.00459 7.39352 8.40914 8.14389C8.64403 8.73765 8.66361 8.95298 8.69624 9.18135C8.91156 9.78817 9.68149 11.0605 9.79242 11.1258C9.90987 11.1975 10.5297 11.974 11.1431 12.483C10.9343 12.633 10.719 12.8092 10.5036 12.9397C10.1382 13.1746 9.84462 13.3247 9.49228 13.4813C9.17256 13.6052 8.26559 13.8206 7.7175 13.8662C6.73876 13.9054 5.80569 13.5987 5.02923 13.0702C5.02923 13.0702 4.55291 12.6657 4.41588 12.5547C4.16141 12.3198 3.81559 11.9544 3.58721 11.4912C3.48281 11.2628 3.38494 11.0018 3.38494 10.78C3.37189 10.4994 3.35231 10.1209 3.37841 9.80774C3.39146 9.64462 3.45019 9.09653 3.59373 8.8551C3.67203 8.71808 3.88736 8.43751 3.97871 8.33963C4.37021 7.94161 4.75518 7.67409 4.98355 7.54359C5.101 7.47834 5.17929 7.43919 5.22497 7.40004C5.27717 7.35437 5.3098 7.32175 5.25107 7.26955C5.19235 7.17167 4.78127 7.0477 4.06353 7.3609C3.71118 7.51749 3.2936 7.73282 2.83685 8.16999C2.70635 8.29396 2.60847 8.46361 2.60847 8.46361C2.59542 8.48971 2.53018 8.74418 2.53018 8.74418C2.53018 8.74418 2.39968 9.03127 2.36705 9.12262C2.24308 9.48149 2.16478 9.85342 2.09301 10.258L2.06038 10.1666C2.04733 10.2841 2.0147 10.6821 2.0147 10.6821C2.0147 10.6821 2.00818 11.2498 2.13868 11.6478C2.28223 12.1045 2.4845 12.4699 2.71287 12.7962C3.17614 13.4291 3.75686 13.8597 4.40283 14.1272C4.44198 14.2773 4.8139 14.4992 5.25107 14.6297C5.46639 14.708 6.26244 14.8776 6.39294 14.9037L6.34726 14.9168C6.97365 14.9298 7.60005 14.9494 8.22644 14.9102C8.53964 14.8907 8.83978 14.8319 9.13993 14.7797C9.45965 14.6949 9.60319 14.6362 9.74022 14.584C10.5754 14.2251 11.3845 13.6444 11.5607 13.6248C11.7434 13.4878 11.9261 13.3377 12.1153 13.1811C12.1283 13.1942 13.5312 14.075 14.3533 14.5775C14.9145 14.6623 16.4152 15.3344 16.4152 15.3344C17.4853 15.7454 19.8734 15.3996 19.8734 15.3996C20.3759 15.3344 20.8783 15.2495 21.3676 15.1125L21.1393 15.0799C21.857 14.9233 22.1767 14.982 22.8749 14.4992C23.1751 14.2643 23.6122 14.1207 23.9711 13.7879C24.4344 13.9445 24.8976 14.0881 25.4001 14.2121C25.524 14.3099 25.2696 14.3099 24.9237 14.2316C25.2108 14.3165 25.4979 14.4013 25.7981 14.46C25.7589 14.5709 25.1782 14.3687 24.865 14.2838C25.4262 14.5579 26.1374 14.6949 26.8486 14.6753C27.5141 14.6623 28.1992 14.6166 28.9496 14.6297L29.2171 14.5318L29.3346 14.5187C29.3215 14.4796 29.6478 14.3687 29.8566 14.3099C30.0784 14.3491 29.8892 14.5383 30.6135 14.323C31.2333 14.2447 32.1534 13.6509 32.7602 13.2333C32.3948 13.4291 32.4861 13.3116 32.6232 13.2007C32.9364 13.018 33.38 12.8679 33.7715 12.483C33.9738 12.2807 34.1826 12.0523 34.2087 11.9805C34.4306 11.8957 33.8564 12.4503 33.8172 12.5547C34.3914 12.0458 34.4893 11.8696 34.6133 11.7326C34.7242 11.576 34.8743 11.4455 35.2396 10.7604C35.4484 10.1209 35.1418 10.78 35.207 10.3819ZM11.9522 11.0605C11.9522 11.0605 11.4237 10.4863 11.3258 10.4407C11.2475 10.4015 11.0256 10.258 10.9865 10.2253C10.9082 10.1797 10.2687 9.50107 10.5624 9.59242C10.3536 9.24007 10.3209 9.2727 10.1382 9.02475C10.1056 8.86816 10.0404 8.73113 10.0143 8.57453C9.72718 7.78502 9.32915 7.00203 9.19213 6.22556C9.0551 5.46214 9.10078 4.54865 9.38788 3.83744C9.60972 3.43289 9.87072 3.12622 10.3797 2.96962C10.9408 2.77387 11.6129 2.87827 12.174 3.18494C12.7352 3.48509 13.2376 4.05928 13.5769 4.67263C13.9227 5.29249 14.125 5.94499 14.2359 6.50613C14.3207 6.89763 14.2359 7.34785 14.2163 7.75892C14.1902 8.41793 13.988 8.84206 13.9488 8.92688C13.5769 9.63157 13.4529 10.3297 12.7874 10.9496C12.696 11.0344 12.435 11.328 12.3371 11.4063C12.2915 11.3737 11.9913 11.0932 11.9522 11.0605ZM20.4476 10.134C20.1279 9.91214 19.5602 9.07695 19.3058 8.63326C19.1492 8.41141 18.7707 7.45877 18.6859 7.23692C18.6859 7.11295 18.6794 6.98897 18.6859 6.85847C18.5685 6.55833 18.3858 6.15378 18.4053 5.83406C18.4053 5.83406 18.2944 4.69873 18.2944 4.47688L18.3205 4.49645C18.327 4.31376 18.3531 4.13106 18.3857 3.96141L18.4053 4.05929C18.451 3.28282 18.8882 2.68905 19.3841 2.3628L19.2797 2.30408C19.8669 1.96478 20.6891 1.19484 22.3399 1.69074C22.3399 1.69074 23.6905 2.13443 24.6888 2.98267C25.2239 3.43942 25.2957 3.63516 25.7002 4.39858C25.6023 4.20936 25.6741 4.50298 25.6415 4.49645C26.6006 6.34953 26.6398 7.15862 26.0264 9.63809C26.1243 9.57937 26.2091 9.5076 26.307 9.44235C25.9351 10.147 26.0917 9.70334 25.7328 10.2188C24.7737 11.5956 23.7101 12.1176 23.697 12.1306C22.1115 11.5499 21.3872 11.0344 20.4476 10.134Z" fill="#F0805E"/>
    <path d="M55.0294 34.0542C55.0686 34.2108 55.1012 34.5175 55.0816 34.8241C55.062 35.1308 54.9968 35.6397 54.9316 35.8159C54.8598 35.9921 54.4226 36.7229 53.868 36.886C53.3134 37.0426 52.7261 36.9904 52.4195 36.7686C52.1128 36.5467 51.8453 36.1944 51.7604 36.0051C51.6756 35.8159 51.5908 35.196 51.643 34.8241C51.6952 34.4522 51.9431 33.7736 52.2433 33.5191C52.5434 33.2647 52.6609 33.1864 52.961 33.1342C53.2612 33.082 53.8484 33.0102 54.1877 33.2125C54.527 33.4278 54.9707 33.8193 55.0294 34.0542Z" fill="#F0805E"/>
    <path d="M62.0443 35.4048C62.0247 35.2351 61.966 35.0198 61.9203 34.8893C61.8811 34.7653 61.718 34.2694 61.718 34.2694C61.6789 34.1716 61.6332 34.0737 61.594 33.9693C61.5549 33.8714 61.5549 33.754 61.5223 33.643C61.4896 33.5321 61.4309 33.3886 61.3657 33.2776C61.333 33.2254 61.1699 33.0232 61.1503 32.9971C61.0525 32.8927 60.7262 32.573 60.7132 32.5664C60.6414 32.5077 60.537 32.4098 60.4196 32.3511C60.3608 32.325 60.1455 32.2206 60.1259 32.2141C60.0476 32.1684 59.6888 32.0379 59.6627 32.0249C59.6039 31.9988 59.4604 31.927 59.3038 31.927C59.2516 31.927 59.0558 31.8813 58.8536 31.8617C58.834 31.8161 58.9449 31.3919 58.7622 30.8112C58.7622 30.8112 58.6252 30.2631 58.5469 30.1131C58.4686 29.9499 58.2337 29.6172 58.1097 29.4736C58.0314 29.3823 57.5486 29.1082 57.4638 29.0495C57.3333 28.9582 57.1571 28.8472 57.0592 28.7885C57.0592 28.7885 56.7917 28.7428 56.7395 28.7167C56.6612 28.6515 56.4589 28.7233 56.3284 28.6906C56.0609 28.6384 55.6498 28.782 55.6368 28.782C55.5389 28.7689 55.3366 28.8864 55.3366 28.8864C55.0561 29.0169 54.9908 29.1408 54.8277 29.2779C54.5275 29.5193 54.5863 29.8716 54.6646 29.8847C54.782 29.9043 54.8538 29.9434 55.0234 29.8194C55.1344 29.7411 55.3105 29.5519 55.5454 29.5454C55.7738 29.5519 56.0283 29.5062 56.1066 29.5519C56.1327 29.5715 56.4785 29.6498 56.5372 29.6824C56.7003 29.7607 56.9091 29.9238 57.0396 30.0282C57.1506 30.1196 57.4638 30.5111 57.4964 30.5829C57.5355 30.6612 57.653 31.1505 57.6921 31.2549C57.7248 31.3593 57.79 31.7051 57.7965 31.7182C57.8161 31.7965 57.8292 32.0249 57.8292 32.0379C57.8292 32.0575 57.6987 32.1358 57.6399 32.1815C57.6008 32.2076 56.9874 32.6382 56.9418 32.6774C56.9222 32.6904 56.6873 32.9057 56.609 33.0036C56.609 33.0036 56.1392 33.6952 56.087 33.9889C56.074 34.0541 56.0739 34.2433 56.0805 34.2694C56.087 34.3021 56.1327 34.4326 56.1653 34.4848C56.1914 34.5304 56.2958 34.6609 56.3545 34.7066C56.4198 34.7523 56.4981 34.7914 56.5959 34.8175C56.7591 34.8697 56.9418 34.8567 57.0853 34.8306C57.0788 34.8306 57.4377 34.7197 57.5877 34.6609C57.7313 34.6022 57.9792 34.4065 57.9792 34.4065C58.0445 34.3412 58.1358 34.2303 58.2272 34.1259C58.3185 34.0215 58.5795 33.7279 58.6317 33.5908C58.6709 33.4864 58.7622 33.232 58.7883 33.0166C58.8992 33.0232 58.9906 33.0297 59.0689 33.0493L59.3886 33.1406C59.7279 33.232 59.6888 33.2776 59.7932 33.3364C59.9759 33.4538 60.1259 33.5647 60.2173 33.6757C60.3021 33.7866 60.4587 33.9562 60.5174 34.1389C60.7327 34.8045 60.8176 35.1568 60.8437 35.47C60.8828 35.9398 60.8306 36.2856 60.7588 36.4814C60.6936 36.6771 60.4 37.3231 60.2825 37.5254C60.1064 37.7603 59.7018 38.0147 59.493 38.1518C59.2842 38.2953 58.5665 38.5237 58.299 38.5433C58.2729 38.5433 58.0706 38.5302 57.9923 38.478C57.9531 38.4454 57.8487 38.3997 57.7378 38.2953C57.7248 38.2888 57.0005 37.7276 56.9157 37.6559C56.7917 37.5515 56.5959 37.6233 56.5959 37.6233C56.5568 37.6428 56.4198 37.7211 56.3284 37.8386C56.2371 37.956 56.2762 38.0539 56.3023 38.1387C56.3154 38.1844 56.3806 38.2757 56.4589 38.3736C56.4589 38.3736 56.6808 38.6607 56.7721 38.7586C56.8635 38.863 56.9418 38.9348 56.9679 38.9674C57.007 39.0065 57.1114 39.0979 57.1179 39.1109C57.144 39.1436 57.2093 39.2414 57.2223 39.2545C57.2419 39.3002 57.2615 39.3458 57.2811 39.3915C57.2811 39.398 57.3333 39.5546 57.3463 39.6655C57.3724 39.8613 57.2745 40.0897 57.268 40.1158C57.1962 40.2985 57.0462 40.6312 56.9287 40.7878C56.8047 40.951 56.5503 41.1924 56.472 41.2642C56.3937 41.3359 56.0609 41.61 55.6825 41.6883C55.5324 41.7209 55.0169 41.7666 54.8864 41.7796C54.7559 41.7861 54.6515 41.747 54.4558 41.7535C54.26 41.7601 54.0512 41.7144 53.8816 41.6491C53.7119 41.5839 53.588 41.486 53.3531 41.4208C53.2421 41.3881 52.9942 41.4534 52.8767 41.5186C52.7854 41.5643 52.7462 41.6296 52.7332 41.7013C52.7267 41.7274 52.7397 41.8645 52.7528 41.9036C52.7658 41.9493 52.8833 42.1842 52.9942 42.3147C53.0138 42.3342 53.1116 42.4256 53.1247 42.4321C53.2226 42.4908 53.3792 42.5365 53.4183 42.5496C53.4901 42.5691 53.7967 42.7323 53.9207 42.7649C53.8946 42.7518 54.5014 42.8693 54.5732 42.8823C54.6711 42.8823 55.1278 42.9606 55.1866 42.9541C55.1866 42.9541 55.4149 42.9606 55.441 42.9606C55.813 42.9019 56.2305 42.8432 56.5307 42.7584C56.7525 42.6996 57.0201 42.6148 57.1506 42.4517C57.3202 42.2429 57.653 42.1059 57.8683 41.7731C57.927 41.6818 58.0314 41.5904 58.0836 41.486C58.1489 41.3555 58.1685 41.1859 58.2533 41.0684C58.3707 40.8988 58.4295 40.7161 58.4686 40.5334C58.4751 40.5203 58.5078 40.2332 58.5012 40.1092C58.5012 40.0962 58.4099 39.4959 58.4099 39.4959C58.3903 39.3263 58.4621 39.3067 58.7492 39.2545C58.7883 39.248 59.9106 39.0848 60.3021 38.6607C60.4652 38.4845 60.8893 38.2496 61.0329 38.0865C61.059 38.0539 61.1308 37.956 61.1699 37.8712C61.2025 37.8125 61.3852 37.4275 61.4505 37.3035C61.4505 37.3035 61.5484 37.16 61.5745 37.1208C61.581 37.1078 61.9072 36.7163 61.9594 36.4161C61.9921 36.2269 61.9986 35.9594 62.0116 35.8876L62.0182 35.7114C62.0377 35.7245 62.0573 35.4896 62.0443 35.4048ZM57.5551 33.6235C57.516 33.643 57.516 33.6104 57.4899 33.6757C57.4638 33.7409 57.3659 33.8192 57.3072 33.8388C57.2484 33.8649 57.144 33.9171 57.0788 33.8584C57.0135 33.7996 57.0918 33.5974 57.1245 33.5452C57.1571 33.493 57.2484 33.4016 57.2745 33.3559C57.3006 33.3103 57.4246 33.1993 57.4768 33.1602C57.5812 33.0819 57.8031 33.0101 57.8357 33.0166C57.8814 33.0232 57.7639 33.2124 57.7639 33.2515C57.7639 33.3037 57.5943 33.6039 57.5551 33.6235ZM61.9921 35.1894C61.9855 35.1503 61.979 35.1307 61.9725 35.1177C61.9725 35.1111 61.9725 35.1112 61.9725 35.1046C61.9725 35.0981 61.979 35.1307 61.9921 35.196C61.9921 35.1895 61.9921 35.1894 61.9921 35.1894Z" fill="#F0805E"/>
    <path d="M23.2595 36.0703C23.3248 36.1486 23.3966 36.3508 23.4357 36.4487C23.4749 36.5466 23.6119 36.5596 23.6641 36.5792C23.7228 36.5988 23.9642 36.6575 24.0882 36.7097C24.2122 36.7619 24.2579 36.8011 24.3166 36.8272C24.3753 36.8533 24.5515 36.9185 24.6102 36.9381C24.6689 36.9642 24.7668 37.0882 24.7929 37.2252C24.8125 37.3557 24.8386 37.3752 24.8516 37.5057C24.8647 37.6297 24.8582 37.7537 24.8516 37.8255C24.8451 37.8972 24.7733 38.0669 24.7016 38.0995C24.6298 38.1321 24.5711 38.1713 24.421 38.1191C24.2709 38.0734 23.7685 37.8907 23.5793 37.8124C23.39 37.7406 22.9659 37.584 22.718 37.4731C22.47 37.3622 22.0524 37.186 21.8697 37.0294C21.687 36.8728 21.3673 36.4226 21.3021 36.3247C21.2368 36.2269 21.015 35.9659 20.9367 35.8354C20.8584 35.7049 20.6104 35.0785 20.5517 34.8501C20.493 34.6152 20.2972 33.8975 20.2581 33.7604C20.2189 33.6299 20.1537 33.3624 20.1667 33.2189C20.1798 33.0688 20.3233 32.9057 20.4016 32.8535C20.4799 32.8013 20.6104 32.7687 20.7148 32.8078C20.8192 32.847 21.1977 32.997 21.2303 33.0427C21.2629 33.0884 21.276 33.2254 21.276 33.3037C21.276 33.382 21.2955 33.506 21.3347 33.6299C21.3738 33.7539 21.6022 34.0019 21.6414 34.1128C21.6805 34.2237 21.7392 34.3346 21.7001 34.5434C21.6609 34.7522 21.6348 34.8762 21.7001 34.9545C21.7653 35.0328 22.0133 35.1502 22.0916 35.2546C22.1764 35.359 22.3852 35.6266 22.457 35.6722C22.5288 35.7179 22.8615 35.8288 22.9529 35.8615C23.0442 35.8941 23.2008 36.005 23.2595 36.0703Z" fill="#F0805E"/>
</svg>
