<svg width="101" height="32" viewBox="0 0 101 32" fill="none" xmlns="http://www.w3.org/2000/svg">
    <path d="M55.4858 13.1072L55.662 11.4433H55.5902L55.0812 12.7809L53.2999 15.8998H52.7714L50.8988 12.7744L50.3702 11.4433H50.3115L50.5529 13.0941V17.4397H49V9.0813H50.4942L52.7257 12.9049L53.1172 13.8575H53.1694L53.5283 12.8788L55.6424 9.0813H57.1235V17.4397H55.4858V13.1072Z" fill="#F0805E"/>
    <path d="M59.2695 9.08154H64.2285V10.5366H60.9073V12.4876H63.9283V13.9426H60.9073V15.9849H64.2872V17.44H59.2695V9.08154Z" fill="#F0805E"/>
    <path d="M73.5599 18.9339H72.3985L72.2158 17.4397H66.8393L66.6566 18.9339H65.4951V15.9846H66.376C66.4347 15.8998 66.5261 15.704 66.65 15.3974C66.7805 15.0972 66.9045 14.6666 67.035 14.1119C67.159 13.5573 67.2699 12.8657 67.3547 12.0305C67.4396 11.1953 67.4852 10.21 67.4722 9.07471H72.4768V15.9781H73.5404V18.9339H73.5599ZM70.8586 15.9846V10.5363H69.0055C68.9599 11.9522 68.8424 13.1136 68.6662 14.0206C68.4901 14.921 68.3074 15.5801 68.1247 15.9846H70.8586Z" fill="#F0805E"/>
    <path d="M79.8887 13.9424H76.835V17.4397H75.1973V9.0813H76.835V12.4873H79.8887V9.0813H81.5265V17.4397H79.8887V13.9424Z" fill="#F0805E"/>
    <path d="M83.6865 9.08154H85.3243V12.083C85.4156 12.07 85.5526 12.0504 85.7419 12.0243C85.9311 11.9982 86.1203 11.9917 86.303 11.9917C86.701 11.9917 87.0795 12.0308 87.4449 12.1091C87.8103 12.1874 88.1235 12.331 88.3975 12.5332C88.665 12.7355 88.8804 13.0095 89.0435 13.3554C89.2001 13.7012 89.2849 14.1384 89.2849 14.6604C89.2849 15.6326 89.0043 16.3568 88.4367 16.8397C87.869 17.3225 87.0338 17.5639 85.918 17.5639C85.8071 17.5639 85.6636 17.5639 85.4874 17.5574C85.3112 17.5509 85.122 17.5444 84.9197 17.5248C84.7175 17.5117 84.5087 17.4922 84.2933 17.4661C84.078 17.44 83.8823 17.4073 83.6996 17.3617V9.08154H83.6865ZM86.029 16.1024C86.4857 16.1024 86.8511 15.998 87.1317 15.7826C87.4123 15.5738 87.5558 15.2215 87.5558 14.7256C87.5558 14.4646 87.5167 14.2493 87.4384 14.0796C87.3601 13.91 87.2491 13.7795 87.1186 13.6881C86.9816 13.5903 86.825 13.525 86.6423 13.4924C86.4596 13.4598 86.2573 13.4402 86.042 13.4402C85.9311 13.4402 85.8006 13.4532 85.6505 13.4728C85.5005 13.4924 85.3895 13.512 85.3308 13.5381V16.0371C85.4222 16.0632 85.5266 16.0763 85.6505 16.0893C85.768 16.0958 85.8985 16.1024 86.029 16.1024ZM90.1397 9.08154H91.7774V17.4465H90.1397V9.08154Z" fill="#F0805E"/>
    <path d="M98.8116 12.8072L98.9095 11.7175H98.8508L98.2896 12.8398L95.1707 17.4399H93.9375V9.07493H95.5753V13.6228L95.4578 14.7451H95.5296L96.1168 13.5837L99.2358 9.0684H100.456V17.4334H98.8182V12.8072H98.8116ZM96.4822 7C96.5149 7.25447 96.6062 7.43718 96.7628 7.5481C96.9194 7.65902 97.1217 7.71775 97.3631 7.71775C97.8981 7.71775 98.1918 7.48285 98.2505 7.01305L99.575 7.21532C99.4837 7.71774 99.2553 8.08314 98.8899 8.31152C98.518 8.53989 98.0091 8.65734 97.3566 8.65734C97.0303 8.65734 96.7302 8.63124 96.4627 8.58556C96.1886 8.53989 95.9537 8.46159 95.7514 8.35066C95.5492 8.23974 95.3795 8.09619 95.249 7.9135C95.1185 7.7308 95.0337 7.50242 95.0011 7.2349L96.4822 7Z" fill="#F0805E"/>
    <path d="M56.2231 31.2792H55.0682L54.8855 29.7849H49V21.4265H50.6378V28.3299H53.5153V21.4265H55.153V28.3299H56.2231V31.2792Z" fill="#F0805E"/>
    <path d="M64.6854 23.0684C64.6854 23.2772 64.6593 23.4795 64.6071 23.6883C64.5549 23.8971 64.4701 24.0863 64.3526 24.2559C64.2352 24.4256 64.0786 24.5757 63.8894 24.7127C63.7001 24.8432 63.4718 24.9411 63.1977 25.0063V25.0781C63.4326 25.1172 63.661 25.189 63.8763 25.2804C64.0916 25.3782 64.2743 25.5087 64.4309 25.6718C64.5875 25.8415 64.718 26.0438 64.8028 26.2787C64.8942 26.5201 64.9399 26.8007 64.9399 27.1269C64.9399 27.5575 64.8485 27.9295 64.6658 28.2427C64.4831 28.5559 64.2352 28.8169 63.9285 29.0126C63.6218 29.2149 63.276 29.3584 62.8845 29.4563C62.493 29.5542 62.095 29.5999 61.6774 29.5999H61.1554C60.9466 29.5999 60.7182 29.5933 60.4768 29.5803C60.2354 29.5672 59.9874 29.5477 59.733 29.5281C59.485 29.502 59.2501 29.4694 59.0479 29.4172V21.1762C59.1979 21.1501 59.3741 21.1305 59.5698 21.1044C59.7656 21.0783 59.9744 21.0587 60.1962 21.0457C60.4181 21.0326 60.6465 21.0196 60.8814 21.0131C61.1163 21.0065 61.3512 21 61.5795 21C61.971 21 62.3495 21.0326 62.7214 21.0913C63.0933 21.1501 63.4196 21.2545 63.7132 21.4046C64.0068 21.5546 64.2352 21.7699 64.4113 22.0375C64.594 22.3115 64.6854 22.6573 64.6854 23.0684ZM61.1815 24.6344C61.2924 24.6344 61.4229 24.6279 61.573 24.6213C61.7231 24.6148 61.8405 24.6018 61.9384 24.5822C62.2385 24.4908 62.4995 24.3473 62.7214 24.1581C62.9432 23.9688 63.0476 23.7209 63.0476 23.4142C63.0476 23.212 63.0085 23.0423 62.9302 22.9053C62.8519 22.7683 62.7475 22.6639 62.617 22.5856C62.4865 22.5073 62.3364 22.4485 62.1668 22.4224C61.9971 22.3898 61.8275 22.3768 61.6448 22.3768C61.436 22.3768 61.2468 22.3833 61.0706 22.3898C60.8944 22.3963 60.7574 22.4094 60.666 22.4224V24.6344H61.1815ZM61.7035 28.2296C61.8993 28.2296 62.0885 28.2035 62.2712 28.1578C62.4539 28.1122 62.617 28.0404 62.7605 27.9425C62.9041 27.8446 63.015 27.7207 63.0998 27.5706C63.1847 27.4205 63.2303 27.2444 63.2303 27.0356C63.2303 26.7746 63.1781 26.5723 63.0803 26.4222C62.9759 26.2721 62.8454 26.1547 62.6822 26.0699C62.5191 25.985 62.3364 25.9328 62.1342 25.9133C61.9319 25.8872 61.7296 25.8807 61.5273 25.8807H60.6726V28.1644C60.7117 28.1774 60.777 28.1905 60.8618 28.197C60.9466 28.2035 61.038 28.2101 61.1358 28.2166C61.2337 28.2231 61.3381 28.2231 61.4425 28.2296C61.5339 28.2296 61.6252 28.2296 61.7035 28.2296Z" fill="#F0805E"/>
    <path d="M68.1309 21.4265H73.0898V22.8816H69.7686V24.8325H72.7897V26.2876H69.7686V28.3299H73.1485V29.7849H68.1309V21.4265Z" fill="#F0805E"/>
    <path d="M82.1138 22.8813H79.6735V29.7847H78.0422V22.8813H75.5889V21.4263H82.1138V22.8813Z" fill="#F0805E"/>
    <path d="M84.1426 25.6024C84.1426 24.2061 84.4493 23.136 85.0626 22.3856C85.6759 21.6353 86.5503 21.2568 87.6921 21.2568C88.2924 21.2568 88.8079 21.3612 89.2581 21.57C89.7018 21.7788 90.0737 22.0725 90.3674 22.4509C90.661 22.8359 90.8828 23.2926 91.0264 23.8277C91.1699 24.3627 91.2417 24.9565 91.2417 25.609C91.2417 27.0053 90.935 28.0754 90.3152 28.8257C89.6953 29.5761 88.821 29.9546 87.6921 29.9546C87.0853 29.9546 86.5633 29.8502 86.1131 29.6414C85.6694 29.4326 85.2975 29.1389 85.0104 28.7605C84.7233 28.3821 84.5015 27.9188 84.3579 27.3903C84.2144 26.8487 84.1426 26.2615 84.1426 25.6024ZM85.8652 25.6024C85.8652 26.0266 85.8978 26.4115 85.9696 26.7704C86.0413 27.1227 86.1523 27.4294 86.2958 27.6839C86.4459 27.9384 86.6351 28.1406 86.8635 28.2842C87.0918 28.4277 87.3659 28.4995 87.6856 28.4995C88.2663 28.4995 88.7166 28.2711 89.0363 27.8209C89.356 27.3642 89.5126 26.6268 89.5126 25.609C89.5126 25.2044 89.48 24.826 89.4082 24.4736C89.3364 24.1213 89.2386 23.8146 89.0885 23.5536C88.9449 23.2926 88.7557 23.0838 88.5273 22.9403C88.299 22.7902 88.0119 22.7184 87.6791 22.7184C87.0984 22.7184 86.6482 22.9533 86.3284 23.4166C86.0218 23.8799 85.8652 24.6106 85.8652 25.6024Z" fill="#F0805E"/>
    <path d="M96.3907 26.2158H95.96V29.7849H94.3223V21.4265H95.96V25.1261L96.3385 24.963L98.6483 21.4265H100.508L98.0741 24.9369L97.4281 25.3937L98.1002 25.8569L100.88 29.7849H98.8636L96.3907 26.2158Z" fill="#F0805E"/>
    <path d="M36.9092 29.0859C36.9316 29.0904 36.9674 29.0994 37.0301 29.1083C37.0032 29.1038 36.954 29.0949 36.9092 29.0859Z" fill="#F0805E"/>
    <path d="M36.8555 29.0814C36.8376 29.0769 36.8197 29.068 36.8018 29.0635C36.8107 29.068 36.8241 29.0724 36.8555 29.0814Z" fill="#F0805E"/>
    <path d="M35.4588 19.0331C35.3961 18.9346 35.2035 18.7868 35.1543 18.6883C35.0334 18.442 34.9304 18.151 34.7781 17.9943C34.3931 17.6092 33.999 17.2375 33.605 16.8614C33.4124 16.6733 33.2244 16.4763 33.0184 16.3017C32.7363 16.0643 32.4407 15.8494 32.1497 15.621C32.0736 15.5584 32.0109 15.4822 31.9392 15.4151C31.6303 15.1464 31.3123 14.8956 31.0123 14.6135C30.6272 14.2508 30.2556 13.8658 29.8794 13.4896C29.6376 13.2478 29.3958 13.006 29.1451 12.7732C29.0107 12.6433 28.8495 12.5403 28.7107 12.415C28.545 12.2627 28.4018 12.0881 28.2316 11.9448C27.9226 11.6851 27.5868 11.4612 27.2778 11.197C26.7091 10.7089 26.1539 10.2074 25.5986 9.70591C25.2852 9.42381 24.9897 9.11484 24.6717 8.83722C24.412 8.60885 24.4702 8.67154 24.1971 8.46109C23.6374 7.93719 23.1359 8.56408 23.2702 8.83274C23.3553 9.03424 23.3508 9.01185 23.4045 9.11932C24.0269 10.3507 24.6673 12.0388 24.6449 16.3957C24.618 21.1242 24.018 22.5795 23.5836 23.0228C23.1493 23.4661 22.1642 23.7572 21.5597 23.7303C20.9552 23.7034 20.6238 23.5154 20.373 23.6004C20.1268 23.6855 19.2222 24.3482 18.8864 24.7691C18.5506 25.1901 17.2072 26.3901 16.6475 26.9274C16.0878 27.4648 13.2578 28.3603 11.8831 28.0782C11.404 27.9797 10.3831 27.8902 10.3472 27.8812C9.53228 27.7469 8.83822 27.6573 8.56955 27.6484C8.40387 27.6394 7.7322 27.5364 7.68743 27.5364C7.56652 27.5767 6.39782 27.72 6.2411 27.7916C5.79332 27.9887 5.09477 28.1454 4.30668 28.6156C3.8186 28.9066 3.37082 29.3007 3.37082 29.3007L3.1335 29.5693C3.06185 29.6813 2.90513 29.8469 2.86035 29.9455C2.90065 29.9499 4.29772 29.9231 4.33355 29.9275C4.48131 29.941 4.62909 30.0081 4.77238 29.9992C5.16195 29.9723 5.54703 29.9141 5.9366 29.8828C6.1784 29.8649 6.93515 29.8783 6.99336 29.8783C7.2083 29.8738 7.67847 29.8425 7.69638 29.8514C7.87997 29.9634 8.06804 29.8693 8.25611 29.8559C8.31432 29.8514 8.52477 29.8156 8.81135 29.8111C8.82479 29.8111 10.0562 29.7932 10.4144 29.7753C10.9473 29.7484 11.4801 29.7126 12.013 29.6857C12.0891 29.6813 12.3802 29.6947 12.4518 29.6947C12.9085 29.6813 13.3653 29.6544 13.822 29.641C14.3504 29.6275 15.9803 29.5962 16.2669 29.6051C16.6565 29.6141 18.3446 29.7216 18.6043 29.6454C18.6536 29.632 19.4864 29.6275 19.7999 29.6051C20.3686 29.5604 20.9373 29.6096 21.5059 29.5828C21.9716 29.5604 24.2687 29.6051 24.9538 29.6141C25.3568 29.6186 25.7643 29.6499 26.1673 29.6231C26.6509 29.5917 27.1301 29.5156 27.6092 29.4663C27.9674 29.426 28.3301 29.3947 28.6883 29.3633C29.1495 29.323 29.5615 29.3902 30.0227 29.3768C30.5242 29.3633 31.0302 29.3992 31.5317 29.3992C31.8362 29.3992 32.2168 29.3275 32.5258 29.3141C32.6422 29.2827 32.6019 29.2111 32.8124 29.1932C32.9243 29.1842 33.2199 28.9738 33.2467 28.8618C33.287 28.6827 33.3363 28.4006 33.3497 28.3693C33.3094 28.3603 33.0184 28.3514 32.9512 28.3379C32.593 28.2842 32.4945 28.114 32.2482 28.0111C31.9527 27.8857 31.7825 27.5454 31.6795 27.2498C31.5541 26.8827 31.384 26.0408 32.1228 25.6781C32.2571 25.611 32.5975 25.4587 32.5975 25.3916C32.5975 25.3692 32.5975 25.3692 32.5885 25.3468C32.5169 25.2035 32.284 25.1274 32.1273 25.1766C31.9258 25.2348 31.7467 25.105 31.6079 24.993C31.4377 24.8587 31.3705 24.7288 31.2093 24.5676C30.9854 24.3438 30.8959 23.9855 30.9854 23.699C31.0257 23.5691 31.0392 23.296 31.075 23.1661C31.1287 22.9556 31.3795 22.5482 31.4511 22.4855C31.7959 22.1676 32.1497 21.9258 32.7139 21.8004C32.7452 21.7959 32.9154 21.8228 33.0676 21.8631C32.9019 21.6571 32.7766 21.3347 32.7676 21.2138C32.7452 20.9586 32.7766 20.6988 32.7855 20.4391C32.7945 20.1526 32.9378 19.969 33.2154 19.8749C33.2736 19.857 33.3229 19.8033 33.3632 19.754C33.5691 19.5257 33.802 19.3555 34.1199 19.369C34.2677 19.3734 34.5319 19.3331 34.6796 19.36C34.8767 19.3958 35.4722 19.5301 35.7006 19.7093C35.9961 19.4227 35.5707 19.2078 35.4588 19.0331Z" fill="#F0805E"/>
    <path d="M3.34438 12.0119C3.27273 12.0119 3.08018 12.0074 2.82495 12.0388C2.67718 12.0567 2.2294 12.2582 2.12194 12.3388C1.91148 12.491 1.70998 12.8089 1.65624 12.8895C1.44578 13.2119 1.40101 13.7627 1.40101 14C1.40101 14.2194 1.3607 14.7657 1.38757 14.9448C1.49056 15.5807 2.01894 16.8747 2.1085 17.0404C2.1891 17.1927 2.78017 17.8778 3.20557 18.2091C3.35781 18.3255 3.71155 18.4733 3.79663 18.5315C3.93097 18.6211 4.23993 18.6345 4.49517 18.6524C4.92504 18.6793 5.28326 18.5897 5.36386 18.5494C5.44446 18.5091 5.83403 18.2673 5.92359 18.1375C6.01315 18.0076 6.12957 17.9091 6.20569 17.7927C6.28182 17.6763 6.57287 17.1927 6.58183 17.1434C6.62213 16.9509 6.62661 16.6777 6.68034 16.4986C6.72512 16.3509 6.67138 16.1494 6.7296 16.0598C6.75646 16.0195 6.64452 15.3568 6.64452 15.2762C6.64452 15.2001 6.55048 14.9135 6.39376 14.7299C6.2639 14.5732 6.01314 14.3045 5.91463 14.2329C5.6594 14.0493 5.37282 14.0045 5.01012 14.0627C4.7728 14.0985 4.52204 14.2105 4.36084 14.3224C4.19964 14.4344 4.09217 14.5687 4.02948 14.6851C3.65782 15.4016 3.88619 16.1001 3.89962 16.2076C3.91305 16.3105 4.03396 16.821 4.25337 17.0449C4.3877 17.1837 4.67429 17.4345 4.7728 17.5643C4.85788 17.6763 4.8534 17.73 4.87131 17.7972C4.88474 17.8643 4.84444 18.0211 4.75041 18.0569C4.65637 18.0927 4.46382 18.1151 4.3474 18.0837C4.15485 18.03 4.04739 17.936 3.97575 17.8912C3.91306 17.8509 3.51005 17.4837 3.41154 17.2912C3.31303 17.0986 3.21004 16.8927 3.18317 16.7762C3.15631 16.6598 3.0175 15.7061 3.12049 15.1642C3.19213 14.7971 3.5817 14.0627 3.91306 13.8388C4.03844 13.7537 4.20859 13.5478 4.38771 13.5119C4.58921 13.4672 4.79519 13.1985 4.99669 13.2075C5.16684 13.2164 5.40864 13.2567 5.53402 13.2298C5.6594 13.203 6.1833 13.3418 6.41167 13.4493C6.68034 13.5746 6.83258 13.9552 6.9714 14C7.14155 14.0582 7.2938 14.309 7.36992 14.4209C7.44604 14.5329 7.51321 14.6717 7.52217 14.8105C7.53113 14.9493 7.76397 15.2851 7.70575 15.6389C7.69232 15.7284 7.64307 16.3329 7.62068 16.4718C7.58038 16.7046 7.45053 17.233 7.39679 17.3807C7.34306 17.5285 7.02961 18.1375 6.8908 18.2897C6.27286 18.9748 5.81164 19.0375 5.64149 19.1405C5.20714 19.4002 4.47278 19.4047 4.2668 19.3778C3.98918 19.3375 3.3399 19.2211 3.0578 19.0196C2.7757 18.8181 2.41299 18.5987 2.11298 18.3256C1.86222 18.1017 1.51295 17.7255 1.3831 17.5106C1.23085 17.2598 0.993527 16.8748 0.908449 16.6016C0.74277 16.3195 0.496492 15.4016 0.433802 15.0478C0.402458 14.8598 0.357675 14.4971 0.380064 14.1747C0.397975 13.9597 0.402459 13.4179 0.581571 13.0104C0.693516 12.7552 0.998008 12.2626 1.40101 12.0029C1.70102 11.8104 2.08611 11.6223 2.30105 11.582C2.51598 11.5417 2.9145 11.5596 3.06675 11.6044C3.21899 11.6537 3.31303 11.685 3.39811 11.7567C3.5011 11.8462 3.60857 12.0074 3.34438 12.0119Z" fill="#F0805E"/>
    <path d="M4.71924 15.0881C4.73716 15.0434 4.82671 14.9807 4.86701 14.9583C4.90731 14.9404 5.05508 14.9046 5.11329 14.918C5.1715 14.9314 5.26106 14.9628 5.27449 15.0792C5.29241 15.1956 5.31031 15.2807 5.31479 15.3702C5.31927 15.4598 5.32375 15.8538 5.30584 15.9658C5.28792 16.0777 5.21628 16.3912 5.21181 16.4315C5.20733 16.4673 5.21181 16.5165 5.21181 16.5165C5.21181 16.5165 5.15359 16.6464 5.0909 16.6867C5.02374 16.727 4.86254 16.7494 4.77746 16.6688C4.69238 16.5882 4.66551 16.5255 4.65208 16.5076C4.63865 16.4897 4.6476 16.4449 4.62073 16.3957C4.59834 16.3419 4.54461 16.2389 4.54909 16.1762C4.55805 16.1136 4.59387 15.9031 4.60282 15.818C4.61178 15.7329 4.65656 15.4329 4.66104 15.3702C4.67447 15.312 4.69685 15.1463 4.71924 15.0881Z" fill="#F0805E"/>
    <path d="M18.7757 16.6735C18.9458 16.6825 19.1115 16.6825 19.2817 16.7004C19.5011 16.7228 19.6802 16.8481 19.8011 17.0228C20.0608 17.3989 20.3071 17.8019 20.2041 18.2855C20.1414 18.5855 20.0608 18.899 19.8235 19.1139C19.716 19.2079 19.5638 19.2527 19.4249 19.3064C19.313 19.3512 19.1921 19.4049 19.0757 19.4049C18.8339 19.4049 18.5831 19.396 18.3458 19.3467C18.1935 19.3109 18.0592 19.19 17.9114 19.1184C17.5219 18.9303 17.3472 18.5945 17.4099 18.1601C17.4458 17.9004 17.4055 17.6228 17.6159 17.4079C17.6831 17.3362 17.7413 17.2601 17.8129 17.1929C17.8577 17.1482 17.9294 17.1213 17.9607 17.0676C18.1353 16.7272 18.4264 16.6422 18.7757 16.6735ZM19.3264 18.6258C19.3578 18.6437 19.3846 18.6572 19.4115 18.6751C19.5414 18.487 19.6757 18.2989 19.819 18.0974C19.707 18.0706 19.6488 18.0571 19.5906 18.0437C19.5011 18.2452 19.416 18.4377 19.3264 18.6258Z" fill="#F0805E"/>
    <path d="M12.9043 6.53125L12.9133 6.53573L12.9491 6.56259L12.9043 6.53125Z" fill="#F0805E"/>
    <path d="M23.1673 7.00606C23.3509 6.55828 23.3688 6.10155 23.427 5.55974L23.3464 5.72989C23.3375 4.84777 23.0375 4.3373 22.6076 3.90744C21.8687 3.46861 21.1926 3.54026 20.7582 3.64772C20.3105 3.76415 20.0687 3.9746 19.9478 4.11789C19.706 4.4179 19.7687 4.4985 19.9925 4.39999C20.6553 4.12237 21.2329 4.26118 21.2329 4.26118C22.0613 4.34626 22.4061 4.99106 22.4374 5.12987C22.4732 5.19256 22.5135 5.53735 22.5135 5.63138C22.527 6.40603 22.312 7.41801 21.2105 8.15684C20.1403 8.77925 19.397 8.8106 18.6402 8.82851C18.2641 8.84194 17.9104 8.76582 17.4492 8.73896C17.1984 8.72552 16.8626 8.61805 16.4954 8.50611C16.6252 8.38969 17.0506 7.89266 17.0506 7.89266C17.2835 7.48966 17.5074 7.20756 17.7044 6.64336C17.6999 6.57619 17.7223 6.54485 17.7133 6.48216C17.8074 6.06572 17.8432 5.97617 17.9059 5.85975C17.9641 5.7478 18.0805 5.10748 18.0805 5.10748C18.0805 4.85672 18.085 4.88359 18.094 4.71791C18.1298 4.65075 18.1343 4.67761 18.1074 4.30596C18.1163 4.20297 18.0716 4.00147 18.0447 3.8537C18.0447 3.58503 17.9596 3.27159 17.8745 2.9671C17.7805 2.6447 17.4984 1.98647 17.2879 1.7178C17.0775 1.44914 16.7237 1.01031 16.5715 0.884937C15.5416 0.258048 15.1296 0.213272 15.1431 0.204316C14.4938 -0.0330057 13.9117 -0.0285282 13.3564 0.0431163C12.8236 0.114761 12.3892 0.338648 11.8161 0.723737C11.7802 0.77747 11.7265 0.831205 11.6235 0.938671C11.5161 1.04166 10.9205 1.64168 10.6966 2.57754C10.625 2.86859 10.5668 3.15517 10.5712 3.36115C10.5892 3.47757 10.5981 3.491 10.6339 3.60295C10.6832 4.1358 10.6787 4.297 10.7101 4.57462C10.7101 4.57462 10.8041 5.12987 10.9653 5.52839C11.0056 5.66272 11.1981 6.09259 11.234 6.17319C11.3146 6.31648 11.5429 6.67022 11.6638 6.76426C11.7802 6.86277 11.8385 6.95232 12.0534 7.1986C12.04 7.19412 12.031 7.19412 12.0176 7.19412C12.0623 7.26129 12.0937 7.37323 12.2459 7.521C12.2101 7.48518 12.2146 7.521 12.2997 7.61055C12.34 7.64638 12.7295 7.93743 12.5863 7.81653C12.6042 7.82101 12.5907 7.8031 12.5594 7.75385C12.8325 8.0852 13.3878 8.35835 13.5355 8.51507C13.7415 8.64492 14.0102 8.70761 14.2072 8.80612C13.2624 9.27181 12.1922 9.52257 11.1354 9.42853C10.3832 9.3748 9.64881 9.13748 8.98609 8.79716C8.66817 8.63149 8.37263 8.43894 8.09053 8.22849C8.26069 8.05833 8.42637 7.8837 8.58309 7.70459C9.05774 7.14039 9.54134 6.04781 9.54134 6.04781C9.54582 5.77915 9.59508 5.61795 9.60403 5.44779C9.62194 5.27764 9.65777 5.09404 9.62195 4.81194C9.63538 4.7806 9.63985 4.7403 9.64433 4.74478C9.59508 4.46716 9.61747 4.00147 9.52791 3.62086C9.47865 3.43279 9.22342 2.64918 9.22342 2.64918C9.0443 2.3223 8.83385 2.15215 8.5607 1.879C8.55175 1.88348 8.57861 1.91482 8.65026 2.03125C8.58757 1.95065 8.44428 1.82975 8.35473 1.70885C8.25622 1.59243 7.89351 1.23868 7.41439 1.09091C7.22632 1.00136 6.77406 0.992404 6.50092 1.06405C5.99045 1.1939 5.53819 1.54765 5.26056 1.80736C5.08593 2.14319 5.36803 1.46705 5.06801 1.94617C4.98294 1.91483 5.18892 1.69541 5.04115 1.77601C4.87547 2.02229 4.75905 2.22827 4.66501 2.46111C4.57098 2.69396 4.48142 2.8865 4.49038 3.22682L4.44112 3.31637C4.44112 3.78654 4.49934 4.95523 4.77696 5.47018C4.93816 5.87766 4.95159 6.02542 4.97398 6.18215C5.12175 6.59858 5.65013 7.47174 5.72625 7.51652C5.80685 7.56578 6.23225 8.09863 6.65316 8.4479C6.50987 8.55089 6.36211 8.67179 6.21434 8.76135C5.96358 8.92255 5.76208 9.02553 5.52028 9.133C5.30086 9.21808 4.67845 9.36584 4.30231 9.39719C3.63064 9.42406 2.99032 9.2136 2.45746 8.8509C2.45746 8.8509 2.13058 8.57328 2.03654 8.49716C1.86191 8.33596 1.62458 8.0852 1.46786 7.76728C1.39622 7.61056 1.32905 7.43144 1.32905 7.2792C1.3201 7.08666 1.30666 6.82695 1.32457 6.61201C1.33352 6.50007 1.37383 6.12394 1.47234 5.95826C1.52607 5.86422 1.67384 5.67168 1.73653 5.60451C2.0052 5.33137 2.26939 5.14778 2.42611 5.05822C2.50671 5.01345 2.56044 4.98658 2.59179 4.95971C2.62761 4.92837 2.65 4.90598 2.6097 4.87016C2.5694 4.80299 2.2873 4.71791 1.79474 4.93285C1.55294 5.04031 1.26636 5.18808 0.952917 5.48809C0.863361 5.57317 0.796191 5.68959 0.796191 5.68959C0.787235 5.7075 0.742459 5.88214 0.742459 5.88214C0.742459 5.88214 0.652903 6.07916 0.630514 6.14184C0.545436 6.38812 0.491703 6.64336 0.442447 6.92098L0.420057 6.85829C0.411101 6.93889 0.388709 7.21203 0.388709 7.21203C0.388709 7.21203 0.384232 7.6016 0.473788 7.87474C0.5723 8.18819 0.711114 8.43895 0.867837 8.66283C1.18576 9.09718 1.58428 9.39271 2.02759 9.5763C2.05445 9.67929 2.30969 9.83153 2.6097 9.92109C2.75747 9.97482 3.30376 10.0912 3.39332 10.1092L3.36197 10.1181C3.79184 10.1271 4.22171 10.1405 4.65158 10.1136C4.86652 10.1002 5.07249 10.0599 5.27847 10.0241C5.49788 9.96587 5.5964 9.92557 5.69043 9.88974C6.26359 9.64347 6.81884 9.24494 6.93974 9.23151C7.06512 9.13748 7.19049 9.03449 7.32035 8.92702C7.32931 8.93598 8.29204 9.54048 8.85624 9.88527C9.24133 9.94348 10.2712 10.4047 10.2712 10.4047C11.0056 10.6868 12.6445 10.4495 12.6445 10.4495C12.9893 10.4047 13.334 10.3465 13.6699 10.2524L13.5132 10.2301C14.0057 10.1226 14.2251 10.1629 14.7043 9.83153C14.9102 9.67033 15.2102 9.57182 15.4565 9.34345C15.7745 9.45092 16.0924 9.54943 16.4372 9.63451C16.5222 9.70168 16.3476 9.70168 16.1103 9.64794C16.3073 9.70615 16.5043 9.76437 16.7103 9.80466C16.6834 9.88079 16.2849 9.74198 16.07 9.68377C16.4551 9.87183 16.9432 9.96587 17.4312 9.95243C17.888 9.94348 18.3581 9.91213 18.8731 9.92109L19.0567 9.85392L19.1373 9.84497C19.1283 9.8181 19.3522 9.74198 19.4955 9.70168C19.6477 9.72854 19.5179 9.8584 20.0149 9.71063C20.4403 9.6569 21.0717 9.24942 21.4881 8.96284C21.2374 9.09718 21.3001 9.01658 21.3941 8.94045C21.609 8.81508 21.9135 8.71209 22.1822 8.4479C22.321 8.30909 22.4643 8.15237 22.4822 8.10311C22.6344 8.0449 22.2404 8.42551 22.2135 8.49716C22.6076 8.14789 22.6747 8.02699 22.7598 7.93295C22.836 7.82549 22.9389 7.73593 23.1897 7.26577C23.333 6.82694 23.1225 7.2792 23.1673 7.00606ZM7.2084 7.47174C7.2084 7.47174 6.84571 7.0777 6.77854 7.04636C6.72481 7.01949 6.57256 6.92098 6.54569 6.89859C6.49196 6.86725 6.05314 6.40156 6.25464 6.46424C6.11135 6.22245 6.08895 6.24484 5.96358 6.07468C5.94119 5.96721 5.89641 5.87318 5.8785 5.76571C5.68148 5.2239 5.40833 4.68657 5.31429 4.15371C5.22026 3.62981 5.25161 3.00292 5.44863 2.51485C5.60088 2.23722 5.77999 2.02677 6.12926 1.9193C6.51435 1.78497 6.97556 1.85661 7.36065 2.06707C7.74575 2.27305 8.09053 2.66709 8.32338 3.088C8.5607 3.51339 8.69951 3.96117 8.77564 4.34626C8.83385 4.61493 8.77564 4.92389 8.7622 5.20599C8.74429 5.65825 8.60548 5.9493 8.57862 6.00751C8.32338 6.49111 8.23831 6.97023 7.78157 7.39562C7.71888 7.45383 7.53977 7.65533 7.4726 7.70907C7.44126 7.68668 7.23527 7.49413 7.2084 7.47174ZM13.0385 6.8359C12.8191 6.68366 12.4295 6.1105 12.2549 5.80601C12.1474 5.65377 11.8877 5.00001 11.8295 4.84777C11.8295 4.76269 11.825 4.67761 11.8295 4.58806C11.7489 4.38208 11.6235 4.10446 11.637 3.88505C11.637 3.88505 11.5608 3.10591 11.5608 2.95367L11.5787 2.9671C11.5832 2.84173 11.6011 2.71635 11.6235 2.59993L11.637 2.66709C11.6683 2.13424 11.9683 1.72676 12.3086 1.50287L12.237 1.46257C12.64 1.22973 13.2042 0.701347 14.3371 1.04166C14.3371 1.04166 15.264 1.34615 15.9491 1.92826C16.3163 2.2417 16.3655 2.37604 16.6431 2.89994C16.576 2.77008 16.6252 2.97158 16.6028 2.9671C17.2611 4.23879 17.2879 4.79403 16.867 6.49559C16.9342 6.45529 16.9924 6.40604 17.0596 6.36126C16.8043 6.84486 16.9118 6.54037 16.6655 6.89411C16.0073 7.83892 15.2774 8.19714 15.2685 8.2061C14.1803 7.80758 13.6833 7.45383 13.0385 6.8359Z" fill="#F0805E"/>
    <path d="M36.7705 23.2513C36.7974 23.3588 36.8198 23.5692 36.8064 23.7797C36.7929 23.9901 36.7481 24.3394 36.7034 24.4603C36.6541 24.5812 36.3541 25.0827 35.9735 25.1947C35.5929 25.3021 35.1899 25.2663 34.9794 25.114C34.769 24.9618 34.5854 24.72 34.5272 24.5901C34.4689 24.4603 34.4107 24.0349 34.4465 23.7797C34.4824 23.5244 34.6525 23.0588 34.8585 22.8841C35.0645 22.7095 35.1451 22.6558 35.3511 22.6199C35.557 22.5841 35.96 22.5349 36.1929 22.6737C36.4257 22.8214 36.7302 23.0901 36.7705 23.2513Z" fill="#F0805E"/>
    <path d="M41.5854 24.1782C41.5719 24.0618 41.5316 23.914 41.5003 23.8245C41.4734 23.7394 41.3615 23.3991 41.3615 23.3991C41.3346 23.3319 41.3033 23.2648 41.2764 23.1931C41.2495 23.1259 41.2495 23.0453 41.2271 22.9692C41.2047 22.8931 41.1644 22.7946 41.1197 22.7185C41.0973 22.6826 40.9853 22.5438 40.9719 22.5259C40.9047 22.4543 40.6808 22.2349 40.6719 22.2304C40.6226 22.1901 40.551 22.1229 40.4704 22.0826C40.4301 22.0647 40.2823 21.9931 40.2689 21.9886C40.2151 21.9572 39.9689 21.8677 39.951 21.8587C39.9107 21.8408 39.8121 21.7916 39.7047 21.7916C39.6689 21.7916 39.5345 21.7602 39.3957 21.7468C39.3823 21.7154 39.4584 21.4244 39.333 21.0259C39.333 21.0259 39.239 20.6497 39.1853 20.5467C39.1315 20.4348 38.9703 20.2064 38.8852 20.1079C38.8315 20.0452 38.5001 19.8572 38.4419 19.8169C38.3524 19.7542 38.2315 19.6781 38.1643 19.6378C38.1643 19.6378 37.9807 19.6064 37.9449 19.5885C37.8912 19.5437 37.7524 19.593 37.6628 19.5706C37.4792 19.5348 37.1971 19.6333 37.1882 19.6333C37.121 19.6243 36.9822 19.7049 36.9822 19.7049C36.7896 19.7945 36.7449 19.8796 36.6329 19.9736C36.4269 20.1393 36.4672 20.3811 36.521 20.39C36.6016 20.4035 36.6508 20.4303 36.7672 20.3452C36.8434 20.2915 36.9643 20.1617 37.1255 20.1572C37.2822 20.1617 37.4568 20.1303 37.5106 20.1616C37.5285 20.1751 37.7658 20.2288 37.8061 20.2512C37.918 20.3049 38.0613 20.4169 38.1509 20.4885C38.227 20.5512 38.4419 20.8199 38.4643 20.8691C38.4912 20.9229 38.5718 21.2587 38.5987 21.3303C38.6211 21.402 38.6658 21.6393 38.6703 21.6483C38.6837 21.702 38.6927 21.8587 38.6927 21.8677C38.6927 21.8811 38.6031 21.9348 38.5628 21.9662C38.536 21.9841 38.1151 22.2796 38.0837 22.3065C38.0703 22.3155 37.9091 22.4632 37.8553 22.5304C37.8553 22.5304 37.5329 23.005 37.4971 23.2065C37.4882 23.2513 37.4882 23.3812 37.4926 23.3991C37.4971 23.4215 37.5285 23.511 37.5509 23.5468C37.5688 23.5782 37.6404 23.6678 37.6807 23.6991C37.7255 23.7304 37.7792 23.7573 37.8464 23.7752C37.9583 23.811 38.0837 23.8021 38.1822 23.7842C38.1778 23.7842 38.424 23.708 38.527 23.6677C38.6255 23.6274 38.7957 23.4931 38.7957 23.4931C38.8405 23.4483 38.9032 23.3722 38.9658 23.3006C39.0285 23.2289 39.2076 23.0274 39.2435 22.9334C39.2703 22.8617 39.333 22.6871 39.3509 22.5393C39.4271 22.5438 39.4897 22.5483 39.5435 22.5617L39.7629 22.6244C39.9957 22.6871 39.9689 22.7185 40.0405 22.7588C40.1659 22.8394 40.2689 22.9155 40.3316 22.9916C40.3898 23.0677 40.4973 23.1841 40.5376 23.3095C40.6853 23.7663 40.7435 24.0081 40.7614 24.223C40.7883 24.5454 40.7525 24.7827 40.7032 24.9171C40.6585 25.0514 40.457 25.4947 40.3764 25.6335C40.2554 25.7947 39.9778 25.9693 39.8345 26.0634C39.6912 26.1619 39.1987 26.3186 39.0151 26.332C38.9972 26.332 38.8584 26.3231 38.8046 26.2873C38.7778 26.2649 38.7061 26.2335 38.63 26.1619C38.6211 26.1574 38.124 25.7723 38.0658 25.723C37.9807 25.6514 37.8464 25.7007 37.8464 25.7007C37.8195 25.7141 37.7255 25.7678 37.6628 25.8484C37.6001 25.929 37.627 25.9962 37.6449 26.0544C37.6538 26.0857 37.6986 26.1484 37.7524 26.2156C37.7524 26.2156 37.9046 26.4126 37.9673 26.4798C38.03 26.5514 38.0837 26.6007 38.1016 26.6231C38.1285 26.65 38.2001 26.7126 38.2046 26.7216C38.2225 26.744 38.2673 26.8112 38.2763 26.8201C38.2897 26.8515 38.3031 26.8828 38.3166 26.9141C38.3166 26.9186 38.3524 27.0261 38.3613 27.1022C38.3792 27.2365 38.3121 27.3933 38.3076 27.4112C38.2584 27.5365 38.1554 27.7649 38.0748 27.8724C37.9897 27.9843 37.815 28.15 37.7613 28.1993C37.7076 28.2485 37.4792 28.4366 37.2195 28.4903C37.1165 28.5127 36.7628 28.544 36.6732 28.553C36.5836 28.5575 36.512 28.5306 36.3777 28.5351C36.2433 28.5396 36.1 28.5082 35.9836 28.4634C35.8672 28.4187 35.7821 28.3515 35.6209 28.3067C35.5448 28.2843 35.3746 28.3291 35.294 28.3739C35.2313 28.4052 35.2045 28.45 35.1955 28.4993C35.191 28.5172 35.2 28.6112 35.209 28.6381C35.2179 28.6694 35.2985 28.8306 35.3746 28.9202C35.3881 28.9336 35.4552 28.9963 35.4642 29.0008C35.5314 29.0411 35.6388 29.0724 35.6657 29.0814C35.715 29.0948 35.9254 29.2068 36.0105 29.2291C35.9926 29.2202 36.409 29.3008 36.4583 29.3097C36.5254 29.3097 36.8389 29.3635 36.8792 29.359C36.8792 29.359 37.0359 29.3635 37.0538 29.3635C37.3091 29.3232 37.5956 29.2829 37.8016 29.2247C37.9539 29.1844 38.1374 29.1262 38.227 29.0142C38.3434 28.8709 38.5718 28.7769 38.7196 28.5485C38.7599 28.4858 38.8315 28.4231 38.8673 28.3515C38.9121 28.2619 38.9255 28.1455 38.9838 28.0649C39.0644 27.9485 39.1047 27.8231 39.1315 27.6977C39.136 27.6888 39.1584 27.4918 39.1539 27.4067C39.1539 27.3977 39.0912 26.9858 39.0912 26.9858C39.0778 26.8694 39.127 26.8559 39.3241 26.8201C39.3509 26.8156 40.1211 26.7037 40.3898 26.4126C40.5017 26.2917 40.7928 26.1305 40.8913 26.0186C40.9092 25.9962 40.9585 25.929 40.9853 25.8708C41.0077 25.8305 41.1331 25.5663 41.1779 25.4812C41.1779 25.4812 41.245 25.3827 41.263 25.3559C41.2674 25.3469 41.4913 25.0782 41.5272 24.8723C41.5495 24.7424 41.554 24.5588 41.563 24.5096L41.5674 24.3887C41.5809 24.3976 41.5943 24.2364 41.5854 24.1782ZM38.5046 22.9558C38.4778 22.9692 38.4778 22.9468 38.4599 22.9916C38.4419 23.0364 38.3748 23.0901 38.3345 23.1036C38.2942 23.1215 38.2225 23.1573 38.1777 23.117C38.133 23.0767 38.1867 22.9379 38.2091 22.9021C38.2315 22.8662 38.2942 22.8035 38.3121 22.7722C38.33 22.7408 38.4151 22.6647 38.4509 22.6379C38.5225 22.5841 38.6748 22.5349 38.6972 22.5393C38.7285 22.5438 38.6479 22.6737 38.6479 22.7005C38.6479 22.7364 38.5315 22.9424 38.5046 22.9558ZM41.5495 24.0304C41.5451 24.0036 41.5406 23.9901 41.5361 23.9812C41.5361 23.9767 41.5361 23.9767 41.5361 23.9722C41.5361 23.9678 41.5406 23.9902 41.5495 24.0349C41.5495 24.0305 41.5495 24.0304 41.5495 24.0304Z" fill="#F0805E"/>
    <path d="M14.9684 24.635C15.0131 24.6888 15.0624 24.8276 15.0893 24.8947C15.1161 24.9619 15.2102 24.9709 15.246 24.9843C15.2863 24.9977 15.452 25.038 15.537 25.0738C15.6221 25.1097 15.6535 25.1365 15.6938 25.1544C15.7341 25.1724 15.855 25.2171 15.8953 25.2306C15.9356 25.2485 16.0027 25.3336 16.0207 25.4276C16.0341 25.5171 16.052 25.5306 16.061 25.6201C16.0699 25.7052 16.0654 25.7903 16.061 25.8395C16.0565 25.8888 16.0072 26.0052 15.958 26.0276C15.9087 26.05 15.8684 26.0769 15.7654 26.041C15.6624 26.0097 15.3176 25.8843 15.1878 25.8306C15.0579 25.7813 14.7669 25.6739 14.5967 25.5977C14.4266 25.5216 14.14 25.4007 14.0146 25.2933C13.8892 25.1858 13.6698 24.8768 13.625 24.8097C13.5802 24.7425 13.428 24.5634 13.3743 24.4738C13.3205 24.3843 13.1504 23.9544 13.1101 23.7977C13.0698 23.6365 12.9354 23.1439 12.9086 23.0499C12.8817 22.9603 12.8369 22.7767 12.8459 22.6782C12.8548 22.5752 12.9534 22.4633 13.0071 22.4275C13.0608 22.3917 13.1504 22.3693 13.222 22.3961C13.2937 22.423 13.5534 22.526 13.5758 22.5573C13.5982 22.5887 13.6071 22.6827 13.6071 22.7364C13.6071 22.7902 13.6205 22.8753 13.6474 22.9603C13.6743 23.0454 13.831 23.2156 13.8579 23.2917C13.8847 23.3678 13.925 23.4439 13.8982 23.5872C13.8713 23.7305 13.8534 23.8156 13.8982 23.8693C13.9429 23.9231 14.1131 24.0037 14.1668 24.0753C14.2251 24.1469 14.3683 24.3305 14.4176 24.3619C14.4669 24.3932 14.6952 24.4693 14.7579 24.4917C14.8206 24.5141 14.9281 24.5902 14.9684 24.635Z" fill="#F0805E"/>
</svg>
