<?xml version="1.0" standalone="no"?>
<!DOCTYPE svg PUBLIC "-//W3C//DTD SVG 20010904//EN"
 "http://www.w3.org/TR/2001/REC-SVG-20010904/DTD/svg10.dtd">
<svg version="1.0" xmlns="http://www.w3.org/2000/svg"
 width="700.000000pt" height="700.000000pt" viewBox="0 0 700.000000 700.000000"
 preserveAspectRatio="xMidYMid meet">
<metadata>
Created by potrace 1.14, written by Peter Selinger 2001-2017
</metadata>
<g transform="translate(0.000000,700.000000) scale(0.100000,-0.100000)"
fill="#000000" stroke="none">
<path d="M2181 6054 c-170 -35 -334 -175 -400 -341 -28 -71 -54 -200 -47 -229
4 -15 9 -49 12 -78 2 -28 6 -69 9 -91 5 -59 22 -127 49 -198 37 -97 59 -137
117 -204 30 -33 64 -78 77 -100 13 -21 40 -49 60 -63 20 -13 42 -29 47 -35 24
-26 146 -104 188 -120 26 -10 47 -21 47 -24 0 -7 -32 -21 -135 -57 -188 -67
-443 -65 -620 5 -56 22 -198 95 -234 122 l-41 29 46 48 c86 87 190 270 205
361 10 64 13 244 4 311 -3 25 -20 89 -36 143 -29 94 -57 141 -114 189 -11 9
-44 39 -74 67 -134 127 -281 137 -437 31 -27 -19 -54 -41 -60 -49 -14 -18 -44
-23 -44 -8 0 15 -52 -69 -72 -118 -27 -61 -40 -162 -33 -240 12 -143 17 -171
45 -249 16 -45 34 -101 40 -126 21 -82 100 -207 190 -303 47 -49 86 -92 88
-96 2 -6 -65 -53 -128 -88 -105 -59 -293 -86 -401 -58 -131 35 -270 138 -335
250 -28 47 -29 56 -29 165 1 93 4 122 19 150 24 44 105 123 157 152 22 12 38
27 36 32 -2 6 -26 11 -53 10 -93 -1 -245 -98 -260 -166 -3 -18 -11 -39 -16
-48 -21 -36 -45 -165 -42 -227 6 -126 104 -272 227 -339 29 -15 59 -34 67 -42
41 -41 183 -73 325 -74 61 0 124 2 140 5 17 4 46 9 65 12 55 9 279 123 326
166 l22 20 138 -85 c75 -47 144 -86 151 -86 8 0 64 -20 126 -44 118 -47 197
-63 287 -60 260 9 448 55 590 144 47 29 93 53 103 52 10 0 49 -11 87 -23 64
-20 68 -23 53 -36 -10 -8 -13 -12 -6 -9 6 4 14 2 17 -3 10 -15 115 -24 268
-22 117 2 158 6 203 22 37 13 61 17 68 10 30 -23 250 67 295 121 10 11 35 29
57 40 65 34 146 98 139 110 -4 6 -3 8 4 4 22 -13 127 141 117 173 -3 10 -1 29
5 42 14 32 39 209 28 203 -4 -3 -8 11 -8 31 0 46 -34 148 -67 200 -68 109
-242 154 -393 103 -60 -20 -125 -71 -135 -105 -6 -23 -15 -24 110 8 88 23 206
-6 275 -68 52 -47 70 -95 70 -188 0 -298 -267 -513 -639 -516 -129 -1 -242 12
-328 37 l-53 15 53 60 c61 70 143 219 152 277 3 23 14 66 24 95 39 111 54 250
38 332 -4 17 -9 50 -12 75 -19 147 -119 337 -232 441 -44 41 -149 95 -253 130
-109 36 -223 44 -329 23z m184 -162 c101 -31 259 -126 316 -190 44 -49 72
-106 141 -292 30 -81 31 -205 3 -336 -18 -86 -20 -104 -8 -100 19 8 12 -3 -61
-94 -66 -82 -126 -140 -188 -182 l-39 -27 -47 20 c-87 38 -117 53 -169 85 -53
34 -73 50 -155 123 -85 77 -206 285 -213 366 -1 17 -8 43 -14 59 -29 73 -35
246 -11 327 20 64 61 134 86 143 8 3 14 11 14 19 0 14 111 75 162 88 38 9 139
4 183 -9z m-1190 -172 c100 -48 188 -171 235 -329 20 -63 22 -87 17 -171 -7
-108 -15 -135 -80 -270 -29 -61 -62 -112 -92 -143 -53 -54 -43 -56 -126 23
-21 19 -56 50 -79 69 -23 18 -47 45 -53 60 -6 14 -19 37 -28 51 -10 14 -26 50
-37 80 -11 30 -34 92 -51 137 -42 114 -46 134 -45 248 1 142 36 217 119 256
55 27 152 22 220 -11z m1582 -1316 c-3 -3 -12 -4 -19 -1 -8 3 -5 6 6 6 11 1
17 -2 13 -5z"/>
<path d="M3945 4660 c-30 -11 -58 -46 -57 -72 0 -13 18 -60 39 -104 60 -123
132 -350 147 -466 3 -18 8 -55 11 -83 12 -84 13 -97 20 -185 3 -47 8 -110 11
-140 5 -70 5 -506 -1 -630 -6 -143 -18 -284 -30 -365 -2 -16 -7 -52 -11 -80
-18 -141 -76 -310 -127 -371 -72 -85 -293 -148 -417 -119 -14 3 -50 8 -80 11
-50 5 -59 3 -105 -27 -58 -38 -169 -132 -203 -171 -23 -27 -176 -178 -238
-235 -17 -15 -62 -57 -100 -92 -75 -70 -148 -109 -302 -160 -217 -72 -399 -93
-592 -66 -69 9 -143 19 -165 21 -22 3 -87 12 -145 20 -58 8 -127 17 -155 20
-54 5 -122 13 -171 20 -89 14 -390 -67 -545 -147 -61 -31 -167 -103 -209 -141
-36 -33 -90 -100 -90 -111 0 -3 62 -7 138 -8 75 -1 155 -2 177 -2 22 0 87 3
145 7 58 4 195 9 305 11 235 5 460 12 600 20 254 15 567 19 1195 17 85 0 189
1 230 4 73 3 668 4 1005 1 94 -1 202 2 240 6 114 12 168 19 195 24 14 3 183 7
375 9 193 2 364 5 380 7 43 4 106 27 137 49 27 19 31 27 43 84 6 31 6 31 -44
37 -55 7 -143 52 -183 94 -64 67 -87 239 -42 301 18 23 103 83 138 95 8 3 8
10 0 23 -8 14 -27 21 -65 24 -68 7 -85 17 -140 81 -49 58 -71 109 -64 148 3
14 8 44 11 66 13 90 65 167 149 220 67 43 133 64 168 54 16 -4 27 -5 25 -1
-44 82 -50 106 -46 186 5 88 18 118 58 137 14 7 41 28 60 45 48 45 74 52 171
50 63 -2 99 -9 146 -28 43 -18 65 -22 72 -15 19 19 13 31 -49 97 -32 36 -59
70 -60 76 -1 50 -239 300 -421 444 -101 81 -102 82 -180 150 -41 36 -155 144
-254 241 -99 97 -200 194 -225 215 -24 22 -51 46 -60 55 -8 9 -62 54 -120 99
-87 69 -150 123 -286 245 -6 6 -60 56 -120 112 -187 174 -242 210 -289 193z"/>
<path d="M325 4098 c-57 -12 -155 -68 -202 -116 -94 -94 -123 -187 -118 -367
7 -228 106 -474 248 -617 179 -181 371 -254 559 -213 17 4 69 25 115 46 160
73 253 199 292 394 32 162 33 212 3 306 -24 77 -31 88 -106 164 -95 96 -131
114 -257 124 -83 6 -88 5 -130 -21 -24 -15 -49 -28 -55 -28 -6 0 -38 -25 -72
-56 -45 -41 -71 -75 -99 -132 -36 -73 -38 -80 -38 -176 1 -140 5 -173 31 -232
55 -128 198 -220 255 -163 27 27 10 64 -60 131 -60 58 -79 99 -100 209 -26
145 33 271 145 312 96 34 185 16 245 -50 89 -97 110 -195 85 -388 -15 -112
-114 -253 -211 -301 -51 -24 -63 -26 -152 -22 -89 3 -104 7 -163 38 -82 44
-219 182 -253 254 -22 47 -60 150 -101 270 -13 38 -15 76 -12 180 5 134 11
168 40 224 48 92 131 144 250 157 54 6 66 11 64 24 -7 39 -120 66 -203 49z"/>
<path d="M746 3508 c-8 -13 -20 -64 -26 -115 -10 -79 -9 -96 4 -122 38 -73 87
-56 105 39 13 65 13 163 0 198 -12 31 -63 30 -83 0z"/>
<path d="M3046 3223 c-31 -16 -115 -105 -135 -141 -8 -15 -14 -59 -15 -103 -1
-94 13 -117 100 -169 55 -33 64 -35 144 -35 71 1 92 5 130 25 88 49 125 188
78 292 -33 72 -81 125 -121 134 -58 13 -154 11 -181 -3z m247 -229 c7 -8 -52
-94 -65 -94 -12 0 -11 4 14 55 21 42 36 54 51 39z"/>
<path d="M6250 2729 c-35 -11 -67 -30 -87 -53 -58 -63 -35 -94 39 -54 24 14
57 24 73 23 95 -5 182 -77 208 -173 33 -118 34 -114 -33 -161 -64 -45 -95 -81
-128 -147 -51 -100 23 -164 142 -124 47 15 131 107 147 159 12 40 14 42 43 36
52 -11 132 -65 154 -104 11 -20 27 -67 37 -106 24 -98 17 -174 -25 -259 -28
-56 -44 -74 -89 -105 -31 -21 -82 -45 -115 -54 -68 -19 -86 -13 -167 54 -47
39 -85 49 -107 27 -23 -23 -12 -54 36 -109 27 -29 54 -64 60 -76 39 -72 -32
-203 -138 -256 -68 -34 -199 -37 -267 -7 -81 36 -135 10 -108 -52 48 -115 411
-143 516 -39 10 9 32 30 50 46 18 17 47 61 64 98 29 62 31 76 28 143 -3 56 -1
74 9 74 39 2 96 14 134 30 61 27 160 107 175 143 7 16 28 52 47 79 23 34 37
69 43 111 13 75 10 95 -32 226 -27 87 -40 111 -80 155 -52 57 -140 104 -210
113 -37 5 -39 8 -40 42 0 20 -2 43 -4 51 -2 8 -6 25 -9 38 -20 90 -58 145
-134 193 -34 22 -75 42 -90 44 -70 12 -91 11 -142 -6z m249 -522 c-17 -33 -51
-67 -66 -67 -24 0 -14 31 22 67 37 37 63 37 44 0z"/>
<path d="M2140 2250 c-11 -11 -20 -30 -20 -42 0 -33 47 -203 71 -257 24 -54
91 -146 132 -181 47 -40 289 -134 319 -124 23 7 27 35 15 95 -6 31 -13 38 -60
56 -28 12 -62 24 -73 28 -12 3 -27 19 -34 35 -10 25 -61 60 -87 60 -4 0 -32
24 -61 53 -45 47 -51 58 -46 83 4 20 -2 43 -20 77 -14 26 -26 59 -26 72 0 24
-13 35 -65 55 -20 8 -29 6 -45 -10z"/>
<path d="M5902 2209 c-115 -57 -155 -261 -71 -362 50 -61 113 -81 194 -63 11
2 25 5 32 5 20 1 95 83 110 120 8 19 17 71 19 116 4 97 -11 130 -83 175 -59
38 -136 41 -201 9z"/>
</g>
</svg>
